<svg width="512" height="349" viewBox="0 0 512 349" fill="none" xmlns="http://www.w3.org/2000/svg">
<path d="M512 16.574V331.838C512 340.815 504.62 348.195 495.643 348.195H16.356C7.379 348.195 0 340.815 0 331.838V16.574C0 7.59703 7.379 0.29303 16.356 0.29303H495.643C504.62 0.29303 512 7.59703 512 16.574Z" fill="url(#paint0_linear_8_165)"/>
<g opacity="0.2">
<path d="M299.373 103.564C298.266 102.319 297.575 101.213 296.192 101.835C294.809 102.457 294.809 103.356 293.356 102.25C291.904 101.144 292.526 99.829 289.275 98.654C286.024 97.478 285.333 96.787 281.805 96.303C278.278 95.819 275.719 95.335 275.511 95.335C275.304 95.335 276.272 95.957 274.889 96.649C273.506 97.341 272.399 97.479 271.016 96.58C269.633 95.681 269.702 95.404 267.351 95.612C264.999 95.82 263.616 96.373 262.579 96.511C261.542 96.649 262.579 96.442 260.988 95.335C259.397 94.228 260.504 93.606 257.737 93.813C254.971 94.021 253.795 94.149 253.103 93.773C252.411 93.398 253.241 91.461 250.544 90.631C247.847 89.801 247.293 90.424 245.91 90.216C244.527 90.009 244.596 89.663 240.654 89.386C236.712 89.109 236.919 89.732 234.222 90.562C231.525 91.392 230.833 91.392 228.343 91.254C225.853 91.116 226.476 92.637 224.954 92.845C223.432 93.052 221.012 91.531 220.735 90.632C220.458 89.733 222.81 88.765 220.735 87.935C218.66 87.105 214.787 85.514 214.026 85.791C213.265 86.068 213.68 87.313 212.297 87.658C210.914 88.004 209.116 88.004 206.972 87.036C204.828 86.068 203.998 85.589 201.716 85.759C199.434 85.929 198.189 86.621 196.252 86.759C194.315 86.897 193.14 86.067 194.454 85.445C195.768 84.823 197.428 82.955 197.428 82.056C197.428 81.157 198.396 79.22 196.183 79.013C193.97 78.806 193.555 80.327 191.48 79.013C189.405 77.699 186.708 77.63 185.947 78.045C185.186 78.46 185.186 79.152 183.872 79.359C182.558 79.566 183.042 80.742 181.451 81.157C179.86 81.572 180.068 80.327 176.402 80.673C172.736 81.019 169.209 81.503 168.31 82.54C167.411 83.577 168.518 84.753 166.581 85.652C164.644 86.551 160.218 85.859 159.665 86.62C159.112 87.381 162.086 90.009 160.08 91.185C158.074 92.361 156.829 90.355 152.196 91.185C147.562 92.015 148.115 91.877 146.387 92.914C144.658 93.951 144.312 93.26 143.275 94.712C142.238 96.164 139.125 97.479 136.981 97.479C134.837 97.479 133.938 96.165 131.171 97.272C128.405 98.379 128.82 99.139 124.462 98.794C120.105 98.448 118.307 98.517 117.477 99.071C116.647 99.624 116.647 101.008 114.503 101.63C112.359 102.252 109.039 103.359 108.209 103.152C107.379 102.945 104.544 104.328 102.607 104.535C100.67 104.743 99.564 104.604 98.942 103.843C98.319 103.082 97.628 101.768 98.596 102.183C99.564 102.598 100.394 103.151 102.123 103.082C103.852 103.013 105.789 101.63 105.374 100.869C104.959 100.108 105.305 99.002 101.916 98.172C98.527 97.342 97.075 97.48 94.516 95.613C91.957 93.746 95.484 92.501 88.776 93.192C82.067 93.884 80.269 94.575 77.572 96.581C74.875 98.587 74.321 100.316 71.555 102.736C68.789 105.157 69.757 105.848 66.299 107.577C62.841 109.306 62.288 108.476 61.25 111.104C60.212 113.732 59.521 116.775 61.665 117.329C63.809 117.882 66.022 116.914 67.129 116.499C68.236 116.084 69.066 116.845 69.204 118.09C69.342 119.335 69.411 121.41 70.795 121.686C72.178 121.963 75.083 120.026 74.945 118.021C74.807 116.015 74.323 114.632 75.706 112.626C77.089 110.62 77.988 109.168 79.441 108.476C80.893 107.784 82.899 106.54 82.138 108.13C81.377 109.721 79.994 111.588 80.962 113.179C81.93 114.77 84.143 113.663 84.697 115.254C85.25 116.845 83.936 118.366 83.59 118.92C83.244 119.473 84.42 120.165 82.829 121.272C81.238 122.378 80.201 123.554 78.472 124.868C76.743 126.182 71.625 127.081 70.449 126.805C69.273 126.528 67.337 126.805 67.198 125.214C67.06 123.623 68.927 121.894 66.991 121.133C65.054 120.372 62.91 121.41 62.288 124.107C61.665 126.804 60.697 127.288 59.107 128.602C57.516 129.916 58.83 133.927 54.197 134.688C49.563 135.449 46.935 134.342 47.281 136.002C47.627 137.662 50.532 136.624 50.601 139.391C50.67 142.157 51.362 143.126 49.356 143.679C47.35 144.232 46.866 143.195 44.169 144.094C41.472 144.993 41.61 148.382 41.057 149.834C40.504 151.286 40.227 152.6 42.025 153.223C43.823 153.845 46.728 154.952 48.872 154.053C51.016 153.154 52.261 153.016 52.538 151.356C52.815 149.696 53.506 148.659 54.959 148.382C56.411 148.105 57.38 146.445 58.209 145.477C59.039 144.509 58.209 144.855 60.353 144.924C62.497 144.993 64.503 142.711 65.263 143.333C66.024 143.955 68.306 145.27 69.758 146.653C71.21 148.036 73.216 148.451 72.87 150.526C72.524 152.601 72.386 155.007 73.769 154.392C75.152 153.777 74.668 151.909 75.567 151.01C76.466 150.111 77.642 150.941 77.504 149.35C77.366 147.759 75.014 147.344 73.769 145.892C72.524 144.44 71.556 142.849 73.077 143.333C74.598 143.817 77.503 145.131 77.78 146.238C78.057 147.345 80.616 149.627 80.892 151.771C81.169 153.915 82.69 155.852 83.382 154.745C84.074 153.638 83.451 152.808 84.973 152.532C86.494 152.255 85.941 151.149 86.771 149.696C87.601 148.244 89.883 150.388 90.713 147.69C91.543 144.993 89.676 144.064 91.75 142.592C93.825 141.12 94.724 140.152 95.346 141.466C95.968 142.78 97.559 144.163 98.32 142.78C99.081 141.397 96.937 140.982 98.735 139.944C100.533 138.907 102.124 137.662 101.64 139.46C101.156 141.258 100.464 142.434 101.709 143.679C102.954 144.924 106.619 145.685 104.614 146.791C102.608 147.898 99.704 147.275 97.006 148.451C94.309 149.627 93.894 149.073 93.202 151.287C92.51 153.5 92.441 154.192 94.723 154.192C97.005 154.192 98.043 152.601 98.665 154.607C99.287 156.613 99.149 161.108 98.181 161.523C97.213 161.938 96.798 161.316 92.51 161.8C88.222 162.284 88.429 163.322 84.971 161.592C81.513 159.863 80.683 157.719 79.438 159.863C78.193 162.007 79.092 163.098 76.395 162.553C73.698 162.007 75.634 160.832 72.038 159.933C68.442 159.034 67.75 159.311 67.75 157.72C67.75 156.129 68.234 154.054 65.398 153.847C62.562 153.64 57.583 154.815 53.502 155.991C49.421 157.167 50.251 155.714 45.548 157.374C40.845 159.034 37.94 159.587 37.456 162.146C36.972 164.705 35.381 166.157 34.344 167.541C33.307 168.924 32.753 175.011 32.477 178.745C32.2 182.48 33.169 180.751 32.131 183.517C31.093 186.284 33.998 190.641 35.174 191.816C36.35 192.992 40.154 196.726 42.574 197.003C44.995 197.28 44.787 196.104 48.522 196.657C52.257 197.21 52.188 195.066 55.992 196.035C59.796 197.003 61.179 197.695 63.392 198.871C65.605 200.047 65.813 201.015 65.813 203.851C65.813 206.687 65.951 204.543 67.957 208.554C69.963 212.565 73.49 216.3 71.415 219.758C69.34 223.216 68.441 223.838 69.755 227.089C71.069 230.34 74.735 236.91 75.15 240.23C75.565 243.55 74.528 243.757 74.943 245.763C75.358 247.769 79.093 249.982 82.482 248.599C85.871 247.216 86.908 247.147 89.675 244.588C92.441 242.029 95.208 243.966 97.283 238.64C99.358 233.315 98.666 232.692 99.565 230.548C100.464 228.404 105.859 225.292 106.066 221.419C106.273 217.546 104.89 214.641 105.374 210.907C105.858 207.172 106.204 203.922 109.8 200.948C113.396 197.974 114.226 200.879 116.716 195.277C119.206 189.675 122.18 188.292 119.413 188.361C116.646 188.43 111.252 190.643 108.97 189.398C106.688 188.153 102.953 182.482 102.192 179.854C101.431 177.226 101.708 178.54 100.394 174.805C99.08 171.07 97.835 169.134 97.282 167.681C96.729 166.229 96.383 163.67 98.043 165.745C99.703 167.82 101.294 170.932 103.507 175.704C105.72 180.476 107.034 184.142 108.971 184.903C110.908 185.664 111.53 186.563 114.435 185.387C117.34 184.211 118.377 184.073 121.144 182.551C123.91 181.029 125.57 180.753 127.576 178.747C129.582 176.741 134.146 175.911 129.098 173.975C124.049 172.039 122.32 173.145 120.868 170.932C119.416 168.719 117.064 166.506 119.208 166.852C121.352 167.198 120.522 167.82 122.943 168.304C125.364 168.788 127.093 167.698 128.407 169.453C129.721 171.209 131.934 172.454 134.009 171.485C136.084 170.517 136.914 169.964 139.127 171.208C141.34 172.453 139.888 175.98 143.208 176.948C146.528 177.916 147.081 174.32 147.773 178.885C148.465 183.45 149.779 187.668 150.954 188.568C152.13 189.467 150.332 193.617 154.066 192.51C157.801 191.403 158.907 191.542 158.907 187.669C158.907 183.796 158.769 182.828 160.774 181.444C162.78 180.061 165.546 178.678 166.791 177.225C168.036 175.773 167.275 174.873 169.765 175.15C172.255 175.427 178.41 182.343 178.133 183.795C177.856 185.247 177.58 185.801 178.755 186.7C179.931 187.599 179.862 187.876 180.761 191.126C181.66 194.377 181.453 193.892 184.288 196.936C187.124 199.979 191.135 202.123 190.789 199.91C190.443 197.697 189.06 197.973 187.815 194.446C186.57 190.919 185.118 187.737 186.778 188.637C188.438 189.536 187.954 190.85 189.683 191.127C191.412 191.404 191.689 189.398 193.003 188.775C194.317 188.153 196.669 183.104 194.801 180.891C192.934 178.678 190.997 177.156 192.934 176.465C194.871 175.773 193.971 176.258 196.254 176.672C198.536 177.087 197.845 175.98 200.611 175.22C203.377 174.459 207.389 173.214 209.533 170.448C211.677 167.682 214.028 166.852 213.406 163.186C212.784 159.521 211.954 157.93 210.64 156.961C209.326 155.993 209.257 155.301 210.432 154.886C211.608 154.471 214.651 154.402 212.922 153.503C211.193 152.604 212.023 153.088 210.017 152.604C208.011 152.12 205.867 153.088 207.665 151.428C209.463 149.768 210.846 148.385 210.846 148.385C210.846 148.385 210.362 148.731 211.538 149.976C212.714 151.221 213.475 150.668 214.028 150.391C214.581 150.114 216.241 148.939 216.449 150.253C216.657 151.567 214.305 152.535 215.688 153.019C217.071 153.503 218.316 152.258 217.763 154.748C217.21 157.238 218.316 159.52 219.492 158.275C220.668 157.03 222.397 153.365 222.051 151.843C221.705 150.322 220.529 151.082 222.12 148.316C223.711 145.55 223.711 143.613 225.855 143.959C227.999 144.305 230.074 142.23 230.904 141.4C231.734 140.57 235.261 138.633 235.814 136.282C236.367 133.93 236.091 133.585 236.851 130.887C237.612 128.19 239.272 128.19 237.197 126.945C235.122 125.7 233.531 125.977 233.186 124.593C232.84 123.21 238.719 116.501 241.278 115.464C243.837 114.427 245.635 114.911 247.364 115.671C249.093 116.432 249.646 117.192 251.237 116.224C252.828 115.256 253.865 114.702 254.764 114.633C255.663 114.564 258.153 112.696 259.19 113.526C260.227 114.356 260.366 115.255 261.611 114.702C262.856 114.149 264.516 111.244 265.069 112.281C265.622 113.318 265.484 114.563 263.962 116.569C262.44 118.575 261.126 118.921 259.19 120.511C257.253 122.102 256.493 123.762 256.493 125.214C256.493 126.666 255.94 131.508 256.7 131.577C257.461 131.646 257.668 131.439 259.674 128.88C261.68 126.321 262.717 126.183 264.031 125.214C265.345 124.246 265.829 123.07 266.037 120.788C266.245 118.506 264.792 117.952 266.936 116.777C269.08 115.601 271.639 114.356 273.783 114.702C275.927 115.048 275.443 114.979 277.034 113.388C278.625 111.797 279.731 110.76 281.391 110.898C283.051 111.036 285.748 111.382 286.163 110.552C286.578 109.722 286.232 109.031 286.301 107.855C286.37 106.679 286.232 106.195 287.823 105.78C289.414 105.365 289.344 104.812 290.105 104.535C290.866 104.258 291.35 105.088 292.595 105.572C293.84 106.056 296.883 106.125 297.575 105.226C298.266 104.325 299.373 103.564 299.373 103.564Z" fill="#040000"/>
<path d="M238.649 141.188C239.553 141.521 241.277 142.917 242.315 142.848C243.352 142.779 243.906 144.162 243.076 144.3C242.246 144.438 239.48 145.752 239.48 145.752C239.48 145.752 238.65 144.715 238.166 145.752C237.682 146.789 237.405 147.55 237.544 148.173C237.682 148.795 238.651 150.594 238.097 151.493C237.544 152.392 236.783 152.876 236.783 153.983C236.783 155.089 237.475 156.265 236.506 156.749C235.538 157.233 234.569 157.372 233.74 157.648C232.91 157.925 232.288 157.994 231.942 158.755C231.596 159.516 230.766 160.622 229.037 160.553C227.308 160.484 227.308 159.101 225.717 160.415C224.126 161.729 224.057 162.49 223.227 162.144C222.397 161.798 223.019 161.314 223.227 160C223.434 158.686 220.391 159.032 223.158 157.51C225.924 155.988 225.924 155.781 227.792 155.504C229.659 155.227 230.697 156.126 231.457 154.536C232.218 152.945 231.457 152.323 232.979 152.254C234.501 152.185 235.469 152.877 235.745 151.147C236.022 149.418 235.814 147.966 235.745 146.859C235.676 145.752 235.261 144.715 236.506 144.3C237.751 143.885 237.889 144.646 238.028 143.678C238.165 142.709 237.335 140.704 238.649 141.188Z" fill="#040000"/>
<path d="M210.846 178.673C212.16 178.881 212.782 181.232 212.368 182.2C211.953 183.168 211.538 184.275 212.714 184.482C213.89 184.69 214.72 184.828 214.72 185.658C214.72 186.488 215.204 184.759 216.103 186.972C217.002 189.185 216.172 189.531 217.21 191.191C218.247 192.851 219.492 193.681 218.04 194.511C216.588 195.341 217.694 196.24 216.173 195.756C214.652 195.272 215.274 195.548 214.513 194.096C213.752 192.644 213.268 193.819 212.577 193.75C211.885 193.681 211.678 193.681 212.231 192.713C212.784 191.745 213.061 191.814 212.439 190.707C211.817 189.6 212.785 188.286 211.886 188.079C210.987 187.872 210.71 189.393 209.12 190.361C207.529 191.329 205.178 191.606 205.247 191.26C205.316 190.914 206.215 190.43 207.668 188.632C209.12 186.834 210.02 187.94 209.743 185.174C209.466 182.408 208.498 183.168 209.397 181.232C210.293 179.296 210.846 178.673 210.846 178.673Z" fill="#040000"/>
<path d="M206.42 194.373C207.467 195.42 208.841 195.134 208.426 196.171C208.011 197.208 206.779 197.347 207.464 198.384C208.149 199.422 208.772 200.943 209.671 200.805C210.57 200.667 210.501 199.975 212.714 199.975C214.927 199.975 216.31 199.491 216.449 200.39C216.587 201.289 215.481 201.358 214.028 202.672C212.576 203.986 211.123 205.3 212.299 206.13C213.475 206.96 213.959 208.482 213.544 209.035C213.129 209.588 212.714 210.142 213.682 210.833C214.65 211.525 219.284 211.317 218.177 212.977C217.07 214.637 214.373 215.536 211.537 215.605C208.701 215.674 210.981 214.844 205.242 214.291C199.503 213.738 198.535 215.19 194.524 213.254C190.513 211.317 187.884 212.977 185.671 209.45C183.458 205.923 184.357 207.652 181.59 203.986C178.824 200.321 180.138 200.321 177.786 198.868C175.434 197.416 173.429 195.341 175.02 195.341C176.611 195.341 175.85 193.474 180.76 197.554C185.67 201.634 184.356 201.427 187.953 203.848C191.549 206.269 192.725 206.545 194.039 206.269C195.353 205.992 197.29 206.269 196.045 204.678C194.8 203.087 194.108 201.082 195.146 200.736C196.184 200.39 196.114 202.119 197.843 200.252C199.572 198.385 199.572 197.9 201.094 197.278C202.616 196.656 201.786 197.278 203.238 196.379C204.691 195.48 205.244 193.197 206.42 194.373Z" fill="#040000"/>
<path d="M225.439 202.396C226.191 203.363 227.445 204.609 227.998 205.647C228.551 206.685 229.589 204.769 231.594 204.827C233.6 204.886 236.574 205.992 237.819 206.546C239.064 207.1 241.208 207.445 242.522 209.243C243.836 211.041 244.804 210.004 244.874 211.802C244.943 213.6 245.22 213.393 246.395 214.43C247.571 215.467 247.778 217.404 245.703 216.574C243.628 215.744 243.006 212.909 240.793 213.185C238.58 213.462 239.479 214.084 237.75 214.43C236.021 214.776 235.26 214.153 233.185 214.015C231.11 213.877 229.589 214.568 230.557 212.701C231.525 210.834 232.217 210.765 228.828 209.381C225.439 207.998 224.125 208.689 224.125 207.237C224.125 205.785 224.678 205.646 223.364 204.401C222.05 203.156 221.635 202.257 222.465 201.634C223.295 201.012 224.955 201.773 225.439 202.396Z" fill="#040000"/>
<path d="M229.451 222.314C231.733 223.49 232.632 225.841 233.739 225.426C234.846 225.011 234.431 224.319 235.26 221.83C236.09 219.34 236.159 216.781 237.197 217.819C238.234 218.856 237.266 220.881 238.926 221.529C240.586 222.176 240.932 222.661 241.278 224.597C241.624 226.534 241.97 225.911 243.699 227.917C245.428 229.923 246.981 229.577 247.276 231.859C247.572 234.141 250.477 236.493 250.615 238.844C250.753 241.196 251.168 242.855 249.439 245.829C247.71 248.803 247.018 250.324 246.465 251.57C245.912 252.815 244.252 253.437 242.454 253.437C240.656 253.437 239.618 252.676 238.512 252.953C237.405 253.23 236.645 254.613 235.331 253.645C234.017 252.677 233.256 251.432 232.841 250.671C232.426 249.91 232.219 247.351 230.282 247.628C228.346 247.905 228.622 248.873 227.446 247.628C226.27 246.383 227.1 245.346 223.642 244.792C220.184 244.239 219.285 243.962 217.832 244.308C216.38 244.654 214.858 245.138 213.267 246.383C211.676 247.628 209.186 247.006 207.803 247.628C206.42 248.25 204.345 249.634 202.823 248.804C201.301 247.974 201.855 247.559 201.924 245.623C201.993 243.686 201.855 245.001 200.887 241.681C199.919 238.361 200.334 238.845 199.435 237.255C198.536 235.664 197.844 236.425 199.089 234.143C200.334 231.861 199.919 231.377 200.61 230.616C201.302 229.855 201.924 230.824 204.276 229.233C206.628 227.642 207.319 228.334 209.463 227.504C211.607 226.674 212.091 223.493 213.405 222.524C214.719 221.556 215.065 220.795 216.033 220.795C217.001 220.795 218.108 221.348 219.837 222.04C221.566 222.732 221.22 222.801 222.673 221.21C224.125 219.619 222.673 218.098 225.301 218.374C227.929 218.651 228.897 218.236 229.243 219.757C229.589 221.277 229.451 222.314 229.451 222.314Z" fill="#040000"/>
<path d="M277.449 254.958C278.832 253.16 279.524 252.952 279.04 250.877C278.556 248.802 278.694 247.175 280.492 249.026C282.29 250.877 284.296 251.915 285.679 251.984C287.062 252.053 290.382 253.091 286.993 255.65C283.604 258.209 284.227 256.411 281.529 260.215C278.832 264.019 280.907 264.088 277.656 265.955C274.405 267.822 270.809 268.652 271.501 266.993C272.193 265.333 271.847 265.333 274.821 263.12C277.795 260.907 279.731 259.247 279.731 257.38C279.731 255.512 277.449 254.958 277.449 254.958Z" fill="#040000"/>
<path d="M112.291 236.285C111.046 234.487 111.046 233.933 110.908 231.029C110.77 228.124 109.801 226.741 110.908 225.081C112.015 223.421 114.919 220.655 116.026 218.718C117.133 216.782 117.409 212.632 118.101 216.366C118.793 220.101 121.006 222.314 117.686 227.294C114.366 232.273 112.291 236.285 112.291 236.285Z" fill="#040000"/>
<path d="M45.758 133.372C45.481 132.819 46.726 131.02 46.726 131.02C46.726 131.02 48.248 130.19 47.833 127.147C47.418 124.104 47.141 125.902 46.035 122.997C44.928 120.092 43.269 120.645 44.928 118.709C46.588 116.772 48.524 113.868 48.939 116.219C49.354 118.57 48.386 120.092 49.354 121.199C50.322 122.306 52.259 122.534 53.365 124.356C54.472 126.178 58.898 126.87 55.578 129.221C52.258 131.573 50.737 130.051 49.492 131.711C48.247 133.372 45.758 133.372 45.758 133.372Z" fill="#040000"/>
<path d="M41.331 131.159C43.544 129.914 44.353 130.191 44.225 127.977C44.097 125.764 45.619 123.827 43.267 123.689C40.916 123.551 40.224 124.934 39.947 125.902C39.67 126.87 39.67 127.147 40.362 128.115C41.054 129.083 41.192 130.467 40.915 131.158C40.64 131.851 41.331 131.159 41.331 131.159Z" fill="#040000"/>
<path d="M33.308 109.581C35.106 108.336 38.011 109.443 38.149 106.814C38.287 104.186 38.979 103.494 34.968 103.218C30.957 102.941 30.957 102.941 28.467 103.218C25.977 103.495 23.626 101.005 25.562 104.74C27.498 108.475 27.775 109.305 29.297 109.581C30.819 109.857 33.308 109.581 33.308 109.581Z" fill="#040000"/>
<path d="M311.753 99.622C309.594 97.154 306.082 96.994 308.848 95.472C311.614 93.951 313.274 92.982 315.903 92.429C318.531 91.876 321.298 92.982 325.586 94.089C329.874 95.196 336.79 94.227 339.972 95.196C343.153 96.164 344.675 98.101 345.643 97.962C346.611 97.824 349.378 94.919 352.144 94.919C354.91 94.919 356.294 94.504 361.965 95.196C367.636 95.888 373.169 96.164 373.307 97.548C373.445 98.931 373.445 99.623 375.52 99.623C377.595 99.623 379.393 98.378 380.638 100.315C381.883 102.252 383.819 103.635 383.543 102.113C383.266 100.592 381.883 99.347 382.99 98.793C384.097 98.24 387.278 97.963 388.108 98.24C388.938 98.517 391.566 98.932 392.396 98.793C393.226 98.655 392.673 97.271 395.439 98.101C398.205 98.931 398.62 101.006 399.174 101.144C399.727 101.282 400.972 99.017 401.11 97.522C401.248 96.026 402.493 96.026 400.004 94.09C397.514 92.153 399.763 89.802 401.543 90.632C403.323 91.462 402.217 92.569 404.015 94.367C405.813 96.165 406.09 97.687 407.335 97.133C408.58 96.58 407.888 94.228 409.548 96.026C411.208 97.824 411.623 96.918 413.144 96.61C414.666 96.302 413.421 95.334 415.219 96.302C417.017 97.27 420.06 98.377 417.847 100.175C415.634 101.973 412.314 101.697 409.963 103.08C407.611 104.463 408.303 104.048 407.611 105.708C406.919 107.368 407.196 107.506 404.43 108.198C401.663 108.89 400.834 108.336 400.972 110.688C401.11 113.04 400.834 113.316 399.865 114.561C398.897 115.806 399.45 116.913 400.557 117.466C401.664 118.019 402.908 117.051 402.908 118.711C402.908 120.371 404.983 121.616 407.749 121.616C410.515 121.616 411.76 122.308 413.42 124.382C415.08 126.457 412.728 126.595 415.495 129.223C418.261 131.851 420.89 133.096 421.305 130.745C421.72 128.394 421.305 127.84 421.72 125.074C422.135 122.308 424.763 122.031 423.38 119.541C421.997 117.051 419.922 115.945 421.858 114.561C423.795 113.178 421.443 111.9 424.763 111.225C428.083 110.55 430.296 109.996 431.679 112.486C433.062 114.976 431.541 116.636 432.924 117.742C434.307 118.849 438.595 117.189 439.425 116.221C440.255 115.253 442.606 115.391 443.436 118.987C444.266 122.583 444.819 123.552 446.064 123.967C447.309 124.382 447.309 125.212 448.831 126.595C450.352 127.978 453.257 130.191 448.831 130.606C444.405 131.021 440.808 130.468 439.148 131.989C437.488 133.51 437.35 132.404 438.456 134.479C439.563 136.554 438.733 135.171 439.563 137.799C440.393 140.427 444.543 140.427 441.499 142.225C438.455 144.023 439.009 144.438 437.211 143.885C435.413 143.332 434.998 139.36 432.923 142.591C430.848 145.822 431.125 147.067 429.327 148.035C427.529 149.003 427.39 147.067 425.731 150.11C424.071 153.153 426.699 153.43 422.965 156.888C419.23 160.346 417.432 158.686 417.155 161.591C416.878 164.496 418.677 167.954 417.708 168.646C416.74 169.338 416.878 169.199 415.772 167.263C414.665 165.326 415.219 164.22 411.346 163.943C407.473 163.666 407.75 162.698 406.228 164.358C404.706 166.018 406.781 166.571 402.493 166.018C398.205 165.465 397.652 160.347 396.822 166.295C395.992 172.243 395.854 172.934 397.237 174.594C398.62 176.254 402.355 180.265 404.015 178.467C405.675 176.669 403.6 174.456 406.782 175.147C409.963 175.839 410.793 175.009 410.24 176.807C409.687 178.605 405.399 178.882 408.857 180.542C412.315 182.202 415.22 180.265 415.496 182.894C415.773 185.522 415.081 186.214 415.219 187.735C415.357 189.256 416.049 190.363 419.23 190.363C422.411 190.363 422.273 189.118 423.103 190.778C423.933 192.438 426.561 191.608 427.668 189.256C428.775 186.904 429.605 184.276 431.264 187.043C432.924 189.809 433.2 190.363 434.86 189.256C436.52 188.149 436.52 188.149 436.52 188.149C436.52 188.149 438.318 186.489 439.84 187.872C441.362 189.255 443.851 187.734 444.405 189.67C444.958 191.606 444.128 191.883 446.48 192.575C448.832 193.267 451.598 192.16 452.981 194.096C454.364 196.033 450.629 194.788 454.641 197.139C458.652 199.491 459.897 199.767 459.621 201.289C459.344 202.811 460.451 203.087 464.047 203.917C467.643 204.747 467.09 204.332 469.995 206.545C472.9 208.758 475.251 207.79 476.22 208.897C477.188 210.004 478.848 210.28 477.465 213.323C476.082 216.366 474.699 215.675 473.592 218.026C472.485 220.378 471.517 220.931 471.794 225.081C472.071 229.231 472.209 228.816 471.379 230.891C470.549 232.966 467.506 233.242 465.016 234.764C462.526 236.286 462.388 235.041 460.728 239.19C459.068 243.34 460.036 241.127 458.653 244.723C457.27 248.319 459.206 246.521 455.195 248.596C451.184 250.671 449.662 248.873 449.247 250.118C448.832 251.363 451.599 250.395 448.694 253.023C445.789 255.651 444.544 256.343 442.746 257.449C440.948 258.555 439.841 259.801 440.256 262.152C440.671 264.503 442.746 264.365 440.394 266.578C438.042 268.791 437.074 266.578 436.383 270.174C435.691 273.77 435 272.111 435.691 275.845C436.383 279.58 439.979 279.58 436.659 281.655C433.339 283.73 429.743 284.698 427.668 279.719C425.593 274.739 425.593 272.803 425.593 269.483C425.593 266.163 425.178 268.653 426.838 262.982C428.498 257.311 425.731 259.247 427.115 253.023C428.498 246.798 428.222 240.159 429.605 235.594C430.988 231.029 434.031 232.274 430.988 228.125C427.945 223.975 427.392 224.667 424.764 221.9C422.136 219.134 423.796 219.687 422.274 216.367C420.752 213.047 419.784 213.324 418.539 210.834C417.294 208.344 416.602 209.174 417.847 205.025C419.092 200.875 416.326 201.014 419.092 199.769C421.858 198.524 421.444 195.481 421.029 194.374C420.614 193.267 423.104 192.852 419.231 192.299C415.358 191.746 414.251 192.991 412.868 190.639C411.485 188.287 412.591 187.873 409.687 186.489C406.782 185.106 403.601 185.106 402.494 183.999C401.387 182.892 401.387 182.892 401.387 182.892C401.387 182.892 403.462 182.062 398.759 181.509C394.056 180.956 390.598 181.509 388.246 178.189C385.894 174.869 386.448 176.806 385.894 173.763C385.341 170.72 384.649 170.72 382.436 168.783C380.223 166.847 380.223 165.74 378.148 164.91C376.073 164.08 375.658 164.357 375.658 164.772C375.658 165.187 375.52 166.847 377.456 168.368C379.393 169.89 379.531 171.273 379.531 171.964C379.531 172.656 376.903 173.486 376.903 173.486C376.903 173.486 376.903 172.656 376.073 170.72C375.243 168.783 374.966 167.815 373.306 165.464C371.646 163.113 371.231 162.836 371.231 162.836C371.231 162.836 369.294 159.793 365.975 155.782C362.655 151.771 361.687 154.26 361.687 149.696C361.687 145.131 362.517 145.131 361.687 141.95C360.857 138.769 358.921 137.247 360.58 136.694C362.24 136.141 363.208 135.311 360.165 132.683C357.122 130.055 356.015 131.438 354.909 127.842C353.802 124.246 356.154 124.522 351.589 122.862C347.024 121.202 346.471 119.819 344.396 118.851C342.321 117.883 341.076 117.33 341.076 117.33C341.076 117.33 341.491 116.915 336.511 116.5C331.531 116.085 332.085 113.734 328.35 115.255C324.615 116.777 324.062 117.053 324.062 117.053C324.062 117.053 326.137 114.563 322.541 114.84C318.945 115.117 319.774 115.947 319.636 117.607C319.498 119.267 320.051 121.203 317.561 122.172C315.071 123.14 311.475 125.768 312.858 123.002C314.241 120.235 317.699 118.299 316.454 117.607C315.209 116.915 312.581 119.128 312.304 116.915C312.027 114.702 312.581 113.595 309.676 113.457C306.771 113.319 304.42 112.074 306.633 111.105C308.846 110.137 310.921 110.552 311.613 108.2C312.305 105.848 317.423 105.295 311.751 105.434C306.08 105.572 303.59 105.572 304.282 104.466C304.974 103.359 304.697 101.285 308.708 101.838C312.721 102.388 312.721 100.728 311.753 99.622Z" fill="#040000"/>
</g>
<path d="M44 193L52.4455 205.208M61.2287 218.433L52.4455 205.208M52.4455 205.208L61.2287 193M52.4455 205.208L44 218.433" stroke="white" stroke-width="5" stroke-linecap="round" stroke-linejoin="round"/>
<path d="M158.858 193L167.304 205.208M176.087 218.433L167.304 205.208M167.304 205.208L176.087 193M167.304 205.208L158.858 218.433" stroke="white" stroke-width="5" stroke-linecap="round" stroke-linejoin="round"/>
<path d="M273.716 193L282.162 205.208M290.945 218.433L282.162 205.208M282.162 205.208L290.945 193M282.162 205.208L273.716 218.433" stroke="white" stroke-width="5" stroke-linecap="round" stroke-linejoin="round"/>
<path d="M388.575 193L397.02 205.208M405.803 218.433L397.02 205.208M397.02 205.208L405.803 193M397.02 205.208L388.575 218.433" stroke="white" stroke-width="5" stroke-linecap="round" stroke-linejoin="round"/>
<path d="M92.4045 193L100.85 205.208M109.633 218.433L100.85 205.208M100.85 205.208L109.633 193M100.85 205.208L92.4045 218.433" stroke="white" stroke-width="5" stroke-linecap="round" stroke-linejoin="round"/>
<path d="M207.263 193L215.708 205.208M224.491 218.433L215.708 205.208M215.708 205.208L224.491 193M215.708 205.208L207.263 218.433" stroke="white" stroke-width="5" stroke-linecap="round" stroke-linejoin="round"/>
<path d="M322.121 193L330.566 205.208M339.35 218.433L330.566 205.208M330.566 205.208L339.35 193M330.566 205.208L322.121 218.433" stroke="white" stroke-width="5" stroke-linecap="round" stroke-linejoin="round"/>
<path d="M436.979 193L445.425 205.208M454.208 218.433L445.425 205.208M445.425 205.208L454.208 193M445.425 205.208L436.979 218.433" stroke="white" stroke-width="5" stroke-linecap="round" stroke-linejoin="round"/>
<path d="M68.6125 193L77.0579 205.208M85.8412 218.433L77.0579 205.208M77.0579 205.208L85.8412 193M77.0579 205.208L68.6125 218.433" stroke="white" stroke-width="5" stroke-linecap="round" stroke-linejoin="round"/>
<path d="M183.471 193L191.916 205.208M200.699 218.433L191.916 205.208M191.916 205.208L200.699 193M191.916 205.208L183.471 218.433" stroke="white" stroke-width="5" stroke-linecap="round" stroke-linejoin="round"/>
<path d="M298.329 193L306.774 205.208M315.558 218.433L306.774 205.208M306.774 205.208L315.558 193M306.774 205.208L298.329 218.433" stroke="white" stroke-width="5" stroke-linecap="round" stroke-linejoin="round"/>
<path d="M413.187 193L421.633 205.208M430.416 218.433L421.633 205.208M421.633 205.208L430.416 193M421.633 205.208L413.187 218.433" stroke="white" stroke-width="5" stroke-linecap="round" stroke-linejoin="round"/>
<path d="M116.197 193L124.642 205.208M133.425 218.433L124.642 205.208M124.642 205.208L133.425 193M124.642 205.208L116.197 218.433" stroke="white" stroke-width="5" stroke-linecap="round" stroke-linejoin="round"/>
<path d="M231.055 193L239.5 205.208M248.284 218.433L239.5 205.208M239.5 205.208L248.284 193M239.5 205.208L231.055 218.433" stroke="white" stroke-width="5" stroke-linecap="round" stroke-linejoin="round"/>
<path d="M345.913 193L354.358 205.208M363.142 218.433L354.358 205.208M354.358 205.208L363.142 193M354.358 205.208L345.913 218.433" stroke="white" stroke-width="5" stroke-linecap="round" stroke-linejoin="round"/>
<path d="M460.771 193L469.217 205.208M478 218.433L469.217 205.208M469.217 205.208L478 193M469.217 205.208L460.771 218.433" stroke="white" stroke-width="5" stroke-linecap="round" stroke-linejoin="round"/>
<path d="M430.521 170.098C430.141 170.479 429.608 170.631 428.923 170.631C428.543 170.631 428.239 170.555 427.934 170.402C427.629 170.326 427.401 170.097 427.173 169.945C427.097 169.793 426.945 169.64 426.869 169.413C426.793 169.261 426.717 169.032 426.641 168.729C426.641 168.424 426.565 168.044 426.565 167.663C426.489 167.207 426.489 166.675 426.489 165.99C426.489 165.305 426.489 164.773 426.565 164.316C426.565 163.859 426.641 163.555 426.641 163.252C426.717 162.947 426.793 162.719 426.869 162.567C426.945 162.339 427.097 162.186 427.173 162.034C427.401 161.807 427.629 161.654 427.934 161.502C428.238 161.426 428.542 161.351 428.923 161.351C429.608 161.351 430.14 161.502 430.521 161.883C430.901 162.263 431.13 162.72 431.282 163.328H434.021C433.793 161.807 433.184 160.742 432.271 159.981C431.358 159.297 430.217 158.916 428.924 158.916C428.163 158.916 427.403 159.068 426.794 159.297C426.261 159.525 425.653 159.905 425.196 160.361C424.816 160.742 424.588 161.122 424.359 161.502C424.207 161.807 424.055 162.262 423.979 162.719C423.903 163.176 423.827 163.632 423.827 164.164V167.816C423.827 168.349 423.903 168.806 423.979 169.262C424.055 169.718 424.207 170.099 424.359 170.479C424.587 170.86 424.815 171.24 425.196 171.619C425.652 172.076 426.261 172.457 426.794 172.685C427.403 172.913 428.163 173.065 428.924 173.065C430.218 173.065 431.359 172.685 432.271 171.924C433.184 171.24 433.793 170.098 434.021 168.653H431.282C431.13 169.261 430.901 169.717 430.521 170.098Z" fill="#CECECF"/>
<path d="M442.541 158.991H440.411L435.314 172.913H438.205L439.042 170.479H443.987L444.824 172.913H447.639L442.541 158.991ZM439.803 168.196L441.553 163.099L443.226 168.196H439.803Z" fill="#CECECF"/>
<path d="M457.224 166.903C457.604 166.827 457.908 166.674 458.213 166.446C458.517 166.217 458.822 165.989 459.05 165.685C459.278 165.38 459.43 165.001 459.583 164.62C459.735 164.239 459.811 163.783 459.811 163.251C459.811 162.718 459.735 162.109 459.507 161.653C459.279 161.121 458.974 160.664 458.594 160.283C458.214 159.903 457.757 159.599 457.149 159.371C456.616 159.142 456.008 158.99 455.323 158.99H449.845V172.912H452.584V167.359H454.486L457.225 172.912H460.344L457.224 166.903ZM456.539 164.62C456.159 164.925 455.702 165.153 455.094 165.153H452.584V161.424H455.094C455.703 161.424 456.159 161.576 456.539 161.956C456.92 162.261 457.072 162.718 457.072 163.251C457.072 163.859 456.92 164.24 456.539 164.62Z" fill="#CECECF"/>
<path d="M473.124 163.099C473.048 162.718 472.972 162.338 472.82 162.033C472.744 161.653 472.516 161.349 472.364 161.045C471.831 160.36 471.223 159.828 470.538 159.523C469.929 159.219 469.093 158.991 468.104 158.991H463.083V172.913H468.104C469.093 172.913 469.93 172.762 470.538 172.457C471.222 172.152 471.831 171.619 472.364 170.935C472.516 170.631 472.744 170.327 472.82 169.946C472.972 169.641 473.048 169.262 473.124 168.882C473.124 168.501 473.2 168.044 473.2 167.588V164.392C473.2 163.935 473.124 163.479 473.124 163.099ZM470.462 167.435C470.462 167.815 470.462 168.119 470.386 168.424C470.386 168.729 470.31 168.957 470.234 169.108C470.158 169.336 470.082 169.489 469.929 169.64C469.473 170.249 468.788 170.478 467.875 170.478H465.821V161.424H467.875C468.788 161.424 469.472 161.729 469.929 162.337C470.081 162.489 470.157 162.642 470.234 162.87C470.31 163.022 470.386 163.251 470.386 163.554C470.462 163.858 470.462 164.162 470.462 164.543V167.435Z" fill="#CECECF"/>
<path d="M130.89 109.924V163.543C130.89 165.701 129.125 167.466 126.967 167.466H60.924C58.766 167.466 57.001 165.701 57.001 163.543V109.924C57.001 107.766 58.766 106.001 60.924 106.001H126.967C129.124 106 130.89 107.766 130.89 109.924Z" fill="#F7D072"/>
<path opacity="0.2" d="M116.383 118.991L127.871 107.503H124.143L114.253 117.469L112.732 118.991L111.591 120.056L103.755 127.892H86.714L85.192 126.37L78.878 120.056L76.367 117.469L66.401 107.503H62.673L72.563 117.469L74.085 118.991H58.337V121.577H76.747L81.616 126.522L82.909 127.892V130.934H58.336V133.597H82.909V142.954H58.336V145.54H82.909V148.659H83.061L78.268 153.377L76.746 154.899H58.336V157.562H74.084L64.194 167.452H67.922L77.812 157.562L86.713 148.662H103.754L122.622 167.453H126.273L116.383 157.563H130.913V154.9H113.796L107.558 148.662V145.543H130.914V142.957H107.558V133.6H130.914V130.937H107.558V127.895L113.796 121.58H130.913V118.994H116.383V118.991ZM104.972 145.998H85.496V130.479H104.972V145.998Z" fill="white"/>
<path d="M85.42 126.37L88.007 128.956H99.875L100.94 127.892L102.462 126.37H85.42ZM85.42 126.37L88.007 128.956H99.875L100.94 127.892L102.462 126.37H85.42ZM85.42 126.37L88.007 128.956H99.875L100.94 127.892L102.462 126.37H85.42ZM85.42 126.37L88.007 128.956H99.875L100.94 127.892L102.462 126.37H85.42ZM101.396 145.998L99.875 144.477H88.007L86.562 145.998H86.486L85.421 147.139H102.462L101.396 145.998ZM85.42 126.37L88.007 128.956H99.875L100.94 127.892L102.462 126.37H85.42ZM81.616 126.37V147.139H106.265V126.37H81.616ZM103.678 144.477H84.202V128.957H103.678V144.477ZM85.42 126.37L88.007 128.956H99.875L100.94 127.892L102.462 126.37H85.42ZM85.42 126.37L88.007 128.956H99.875L100.94 127.892L102.462 126.37H85.42ZM85.42 126.37L88.007 128.956H99.875L100.94 127.892L102.462 126.37H85.42ZM85.42 126.37L88.007 128.956H99.875L100.94 127.892L102.462 126.37H85.42ZM85.42 126.37L88.007 128.956H99.875L100.94 127.892L102.462 126.37H85.42ZM85.42 126.37L88.007 128.956H99.875L100.94 127.892L102.462 126.37H85.42Z" fill="#717070"/>
<path d="M76.502 117.443L79.118 120.059H57V117.443H76.502Z" fill="#717070"/>
<path d="M130.89 117.443V120.059H108.772L111.387 117.443H130.89Z" fill="#717070"/>
<path d="M84.218 129.432H57V132.048H84.218V129.432Z" fill="#717070"/>
<path d="M130.889 129.432H103.671V132.048H130.889V129.432Z" fill="#717070"/>
<path d="M84.218 141.422H57V144.038H84.218V141.422Z" fill="#717070"/>
<path d="M130.889 141.422H103.671V144.038H130.889V141.422Z" fill="#717070"/>
<path d="M79.121 153.407L76.505 156.023H57V153.407H79.121Z" fill="#717070"/>
<path d="M130.89 153.407V156.023H111.384L108.769 153.407H130.89Z" fill="#717070"/>
<path d="M88.03 144.498L65.062 167.466H61.365L84.333 144.498H88.03Z" fill="#717070"/>
<path d="M126.528 106L103.56 128.968H99.863L122.831 106H126.528Z" fill="#717070"/>
<path d="M88.027 128.968H84.329L61.361 106H65.059L88.027 128.968Z" fill="#717070"/>
<path d="M126.525 167.466H122.827L102.475 147.114L101.386 146.025L99.859 144.498H103.557L104.979 145.92L106.173 147.114L107.595 148.536L112.466 153.407L113.993 154.934L115.082 156.023L116.609 157.55L126.525 167.466Z" fill="#717070"/>
<path d="M445.736 302.174C445.736 293.988 449.112 286.594 454.542 281.296C449.284 276.166 442.1 273 434.174 273C418.061 273 405 286.062 405 302.174C405 318.287 418.062 331.348 434.174 331.348C442.101 331.348 449.285 328.182 454.542 323.052C449.112 317.755 445.736 310.36 445.736 302.174Z" fill="#DC3B39"/>
<path d="M474.91 273C466.983 273 459.8 276.166 454.542 281.296C459.972 286.594 463.348 293.988 463.348 302.174C463.348 310.36 459.972 317.754 454.542 323.052C459.8 328.182 466.984 331.348 474.91 331.348C491.023 331.348 504.084 318.286 504.084 302.174C504.084 286.062 491.022 273 474.91 273Z" fill="#E6AB2D"/>
<path d="M463.348 302.174C463.348 293.988 459.972 286.594 454.542 281.296C449.112 286.594 445.736 293.988 445.736 302.174C445.736 310.36 449.112 317.754 454.542 323.052C459.972 317.755 463.348 310.36 463.348 302.174Z" fill="#DC3B39"/>
<path d="M33.6136 37.5455H36.0341L40.875 45.6932H41.0795L45.9205 37.5455H48.3409L42.0341 47.8068V55H39.9205V47.8068L33.6136 37.5455ZM54.2685 55.2727C53.0866 55.2727 52.0497 54.9915 51.1577 54.429C50.2713 53.8665 49.5781 53.0795 49.0781 52.0682C48.5838 51.0568 48.3366 49.875 48.3366 48.5227C48.3366 47.1591 48.5838 45.9687 49.0781 44.9517C49.5781 43.9347 50.2713 43.1449 51.1577 42.5824C52.0497 42.0199 53.0866 41.7386 54.2685 41.7386C55.4503 41.7386 56.4844 42.0199 57.3707 42.5824C58.2628 43.1449 58.956 43.9347 59.4503 44.9517C59.9503 45.9687 60.2003 47.1591 60.2003 48.5227C60.2003 49.875 59.9503 51.0568 59.4503 52.0682C58.956 53.0795 58.2628 53.8665 57.3707 54.429C56.4844 54.9915 55.4503 55.2727 54.2685 55.2727ZM54.2685 53.4659C55.1662 53.4659 55.9048 53.2358 56.4844 52.7756C57.0639 52.3153 57.4929 51.7102 57.7713 50.9602C58.0497 50.2102 58.1889 49.3977 58.1889 48.5227C58.1889 47.6477 58.0497 46.8324 57.7713 46.0767C57.4929 45.321 57.0639 44.7102 56.4844 44.2443C55.9048 43.7784 55.1662 43.5455 54.2685 43.5455C53.3707 43.5455 52.6321 43.7784 52.0526 44.2443C51.473 44.7102 51.044 45.321 50.7656 46.0767C50.4872 46.8324 50.348 47.6477 50.348 48.5227C50.348 49.3977 50.4872 50.2102 50.7656 50.9602C51.044 51.7102 51.473 52.3153 52.0526 52.7756C52.6321 53.2358 53.3707 53.4659 54.2685 53.4659ZM71.5206 49.6477V41.9091H73.532V55H71.5206V52.7841H71.3842C71.0774 53.4489 70.6001 54.0142 69.9524 54.4801C69.3047 54.9403 68.4865 55.1705 67.4979 55.1705C66.6797 55.1705 65.9524 54.9915 65.3161 54.6335C64.6797 54.2699 64.1797 53.7244 63.8161 52.9972C63.4524 52.2642 63.2706 51.3409 63.2706 50.2273V41.9091H65.282V50.0909C65.282 51.0455 65.549 51.8068 66.0831 52.375C66.6229 52.9432 67.3104 53.2273 68.1456 53.2273C68.6456 53.2273 69.1541 53.0994 69.6712 52.8438C70.1939 52.5881 70.6314 52.196 70.9837 51.6676C71.3416 51.1392 71.5206 50.4659 71.5206 49.6477ZM85.9773 47.125V55H83.9659V37.5455H85.9773V43.9545H86.1477C86.4545 43.2784 86.9148 42.7415 87.5284 42.3438C88.1477 41.9403 88.9716 41.7386 90 41.7386C90.892 41.7386 91.6733 41.9176 92.3438 42.2756C93.0142 42.6278 93.5341 43.1705 93.9034 43.9034C94.2784 44.6307 94.4659 45.5568 94.4659 46.6818V55H92.4545V46.8182C92.4545 45.7784 92.1847 44.9744 91.6449 44.4062C91.1108 43.8324 90.3693 43.5455 89.4205 43.5455C88.7614 43.5455 88.1705 43.6847 87.6477 43.9631C87.1307 44.2415 86.7216 44.6477 86.4205 45.1818C86.125 45.7159 85.9773 46.3636 85.9773 47.125ZM101.998 55.3068C101.168 55.3068 100.415 55.1506 99.7393 54.8381C99.0632 54.5199 98.5263 54.0625 98.1286 53.4659C97.7308 52.8636 97.532 52.1364 97.532 51.2841C97.532 50.5341 97.6797 49.9261 97.9751 49.4602C98.2706 48.9886 98.6655 48.6193 99.1598 48.3523C99.6541 48.0852 100.2 47.8864 100.796 47.7557C101.398 47.6193 102.004 47.5114 102.612 47.4318C103.407 47.3295 104.052 47.2528 104.546 47.2017C105.046 47.1449 105.41 47.0511 105.637 46.9205C105.87 46.7898 105.987 46.5625 105.987 46.2386V46.1705C105.987 45.3295 105.756 44.6761 105.296 44.2102C104.842 43.7443 104.151 43.5114 103.225 43.5114C102.265 43.5114 101.512 43.7216 100.967 44.142C100.421 44.5625 100.038 45.0114 99.8161 45.4886L97.907 44.8068C98.2479 44.0114 98.7024 43.392 99.2706 42.9489C99.8445 42.5 100.469 42.1875 101.146 42.0114C101.827 41.8295 102.498 41.7386 103.157 41.7386C103.577 41.7386 104.06 41.7898 104.606 41.892C105.157 41.9886 105.688 42.1903 106.2 42.4972C106.717 42.804 107.146 43.267 107.487 43.8864C107.827 44.5057 107.998 45.3352 107.998 46.375V55H105.987V53.2273H105.884C105.748 53.5114 105.521 53.8153 105.202 54.1392C104.884 54.4631 104.461 54.7386 103.933 54.9659C103.404 55.1932 102.759 55.3068 101.998 55.3068ZM102.305 53.5C103.1 53.5 103.771 53.3438 104.316 53.0312C104.867 52.7188 105.282 52.3153 105.56 51.821C105.844 51.3267 105.987 50.8068 105.987 50.2614V48.4205C105.901 48.5227 105.714 48.6165 105.424 48.7017C105.14 48.7812 104.81 48.8523 104.435 48.9148C104.066 48.9716 103.705 49.0227 103.353 49.0682C103.006 49.108 102.725 49.142 102.509 49.1705C101.987 49.2386 101.498 49.3494 101.043 49.5028C100.594 49.6506 100.231 49.875 99.9524 50.1761C99.6797 50.4716 99.5433 50.875 99.5433 51.3864C99.5433 52.0852 99.8018 52.6136 100.319 52.9716C100.842 53.3239 101.504 53.5 102.305 53.5ZM121.905 41.9091L117.064 55H115.018L110.178 41.9091H112.359L115.973 52.3409H116.109L119.723 41.9091H121.905ZM129.58 55.2727C128.318 55.2727 127.23 54.9943 126.315 54.4375C125.406 53.875 124.705 53.0909 124.21 52.0852C123.722 51.0739 123.477 49.8977 123.477 48.5568C123.477 47.2159 123.722 46.0341 124.21 45.0114C124.705 43.983 125.392 43.1818 126.273 42.608C127.159 42.0284 128.193 41.7386 129.375 41.7386C130.057 41.7386 130.73 41.8523 131.395 42.0795C132.06 42.3068 132.665 42.6761 133.21 43.1875C133.756 43.6932 134.19 44.3636 134.514 45.1989C134.838 46.0341 135 47.0625 135 48.2841V49.1364H124.909V47.3977H132.955C132.955 46.6591 132.807 46 132.511 45.4205C132.222 44.8409 131.807 44.3835 131.267 44.0483C130.733 43.7131 130.102 43.5455 129.375 43.5455C128.574 43.5455 127.881 43.7443 127.295 44.142C126.716 44.5341 126.27 45.0455 125.957 45.6761C125.645 46.3068 125.489 46.983 125.489 47.7045V48.8636C125.489 49.8523 125.659 50.6903 126 51.3778C126.347 52.0597 126.827 52.5795 127.44 52.9375C128.054 53.2898 128.767 53.4659 129.58 53.4659C130.108 53.4659 130.585 53.392 131.011 53.2443C131.443 53.0909 131.815 52.8636 132.128 52.5625C132.44 52.2557 132.682 51.875 132.852 51.4205L134.795 51.9659C134.591 52.625 134.247 53.2045 133.764 53.7045C133.281 54.1989 132.685 54.5852 131.974 54.8636C131.264 55.1364 130.466 55.2727 129.58 55.2727ZM140.071 47.125V55H138.06V41.9091H140.003V43.9545H140.173C140.48 43.2898 140.946 42.7557 141.571 42.3523C142.196 41.9432 143.003 41.7386 143.991 41.7386C144.878 41.7386 145.653 41.9205 146.318 42.2841C146.983 42.642 147.5 43.1875 147.869 43.9205C148.239 44.6477 148.423 45.5682 148.423 46.6818V55H146.412V46.8182C146.412 45.7898 146.145 44.9886 145.611 44.4148C145.077 43.8352 144.344 43.5455 143.412 43.5455C142.77 43.5455 142.196 43.6847 141.69 43.9631C141.19 44.2415 140.795 44.6477 140.506 45.1818C140.216 45.7159 140.071 46.3636 140.071 47.125ZM153.871 37.5455V39.0795C153.871 39.5455 153.786 40.0426 153.616 40.571C153.451 41.0938 153.207 41.6023 152.883 42.0966C152.565 42.5852 152.178 43.0114 151.724 43.375L150.633 42.4886C150.991 41.9773 151.3 41.446 151.562 40.8949C151.829 40.3381 151.962 39.7443 151.962 39.1136V37.5455H153.871ZM162.573 41.9091V43.6136H155.789V41.9091H162.573ZM157.766 38.7727H159.778V51.25C159.778 51.8182 159.86 52.2443 160.025 52.5284C160.195 52.8068 160.411 52.9943 160.673 53.0909C160.94 53.1818 161.221 53.2273 161.516 53.2273C161.738 53.2273 161.92 53.2159 162.062 53.1932C162.204 53.1648 162.317 53.142 162.403 53.125L162.812 54.9318C162.675 54.983 162.485 55.0341 162.241 55.0852C161.996 55.142 161.687 55.1705 161.312 55.1705C160.744 55.1705 160.187 55.0483 159.641 54.804C159.102 54.5597 158.653 54.1875 158.295 53.6875C157.942 53.1875 157.766 52.5568 157.766 51.7955V38.7727ZM177.633 60.1818C176.661 60.1818 175.826 60.0568 175.127 59.8068C174.428 59.5625 173.846 59.2386 173.38 58.8352C172.92 58.4375 172.553 58.0114 172.281 57.5568L173.883 56.4318C174.065 56.6705 174.295 56.9432 174.573 57.25C174.852 57.5625 175.232 57.8324 175.715 58.0597C176.204 58.2926 176.843 58.4091 177.633 58.4091C178.69 58.4091 179.562 58.1534 180.249 57.642C180.937 57.1307 181.281 56.3295 181.281 55.2386V52.5795H181.11C180.962 52.8182 180.752 53.1136 180.479 53.4659C180.212 53.8125 179.826 54.1222 179.32 54.3949C178.82 54.6619 178.144 54.7955 177.292 54.7955C176.235 54.7955 175.286 54.5455 174.445 54.0455C173.61 53.5455 172.948 52.8182 172.46 51.8636C171.977 50.9091 171.735 49.75 171.735 48.3864C171.735 47.0455 171.971 45.8778 172.442 44.8835C172.914 43.8835 173.57 43.1108 174.411 42.5653C175.252 42.0142 176.224 41.7386 177.326 41.7386C178.178 41.7386 178.854 41.8807 179.354 42.1648C179.86 42.4432 180.246 42.7614 180.513 43.1193C180.786 43.4716 180.996 43.7614 181.144 43.9886H181.349V41.9091H183.292V55.375C183.292 56.5 183.036 57.4148 182.525 58.1193C182.019 58.8295 181.337 59.3494 180.479 59.679C179.627 60.0142 178.678 60.1818 177.633 60.1818ZM177.565 52.9886C178.371 52.9886 179.053 52.804 179.61 52.4347C180.167 52.0653 180.59 51.5341 180.88 50.8409C181.17 50.1477 181.315 49.3182 181.315 48.3523C181.315 47.4091 181.173 46.5767 180.888 45.8551C180.604 45.1335 180.184 44.5682 179.627 44.1591C179.07 43.75 178.383 43.5455 177.565 43.5455C176.712 43.5455 176.002 43.7614 175.434 44.1932C174.871 44.625 174.448 45.2045 174.164 45.9318C173.886 46.6591 173.746 47.4659 173.746 48.3523C173.746 49.2614 173.888 50.0653 174.173 50.7642C174.462 51.4574 174.888 52.0028 175.451 52.4006C176.019 52.7926 176.724 52.9886 177.565 52.9886ZM192.292 55.2727C191.11 55.2727 190.073 54.9915 189.181 54.429C188.295 53.8665 187.602 53.0795 187.102 52.0682C186.607 51.0568 186.36 49.875 186.36 48.5227C186.36 47.1591 186.607 45.9687 187.102 44.9517C187.602 43.9347 188.295 43.1449 189.181 42.5824C190.073 42.0199 191.11 41.7386 192.292 41.7386C193.474 41.7386 194.508 42.0199 195.394 42.5824C196.286 43.1449 196.979 43.9347 197.474 44.9517C197.974 45.9687 198.224 47.1591 198.224 48.5227C198.224 49.875 197.974 51.0568 197.474 52.0682C196.979 53.0795 196.286 53.8665 195.394 54.429C194.508 54.9915 193.474 55.2727 192.292 55.2727ZM192.292 53.4659C193.19 53.4659 193.928 53.2358 194.508 52.7756C195.087 52.3153 195.516 51.7102 195.795 50.9602C196.073 50.2102 196.212 49.3977 196.212 48.5227C196.212 47.6477 196.073 46.8324 195.795 46.0767C195.516 45.321 195.087 44.7102 194.508 44.2443C193.928 43.7784 193.19 43.5455 192.292 43.5455C191.394 43.5455 190.656 43.7784 190.076 44.2443C189.496 44.7102 189.067 45.321 188.789 46.0767C188.511 46.8324 188.371 47.6477 188.371 48.5227C188.371 49.3977 188.511 50.2102 188.789 50.9602C189.067 51.7102 189.496 52.3153 190.076 52.7756C190.656 53.2358 191.394 53.4659 192.292 53.4659ZM206.987 41.9091V43.6136H200.203V41.9091H206.987ZM202.18 38.7727H204.192V51.25C204.192 51.8182 204.274 52.2443 204.439 52.5284C204.609 52.8068 204.825 52.9943 205.087 53.0909C205.354 53.1818 205.635 53.2273 205.93 53.2273C206.152 53.2273 206.334 53.2159 206.476 53.1932C206.618 53.1648 206.732 53.142 206.817 53.125L207.226 54.9318C207.089 54.983 206.899 55.0341 206.655 55.0852C206.411 55.142 206.101 55.1705 205.726 55.1705C205.158 55.1705 204.601 55.0483 204.055 54.804C203.516 54.5597 203.067 54.1875 202.709 53.6875C202.357 53.1875 202.18 52.5568 202.18 51.7955V38.7727ZM220.615 55.3068C219.786 55.3068 219.033 55.1506 218.357 54.8381C217.68 54.5199 217.143 54.0625 216.746 53.4659C216.348 52.8636 216.149 52.1364 216.149 51.2841C216.149 50.5341 216.297 49.9261 216.592 49.4602C216.888 48.9886 217.283 48.6193 217.777 48.3523C218.271 48.0852 218.817 47.8864 219.413 47.7557C220.016 47.6193 220.621 47.5114 221.229 47.4318C222.024 47.3295 222.669 47.2528 223.163 47.2017C223.663 47.1449 224.027 47.0511 224.254 46.9205C224.487 46.7898 224.604 46.5625 224.604 46.2386V46.1705C224.604 45.3295 224.374 44.6761 223.913 44.2102C223.459 43.7443 222.768 43.5114 221.842 43.5114C220.882 43.5114 220.129 43.7216 219.584 44.142C219.038 44.5625 218.655 45.0114 218.433 45.4886L216.524 44.8068C216.865 44.0114 217.32 43.392 217.888 42.9489C218.462 42.5 219.087 42.1875 219.763 42.0114C220.445 41.8295 221.115 41.7386 221.774 41.7386C222.195 41.7386 222.678 41.7898 223.223 41.892C223.774 41.9886 224.305 42.1903 224.817 42.4972C225.334 42.804 225.763 43.267 226.104 43.8864C226.445 44.5057 226.615 45.3352 226.615 46.375V55H224.604V53.2273H224.501C224.365 53.5114 224.138 53.8153 223.82 54.1392C223.501 54.4631 223.078 54.7386 222.55 54.9659C222.021 55.1932 221.376 55.3068 220.615 55.3068ZM220.922 53.5C221.717 53.5 222.388 53.3438 222.933 53.0312C223.484 52.7188 223.899 52.3153 224.178 51.821C224.462 51.3267 224.604 50.8068 224.604 50.2614V48.4205C224.518 48.5227 224.331 48.6165 224.041 48.7017C223.757 48.7812 223.428 48.8523 223.053 48.9148C222.683 48.9716 222.322 49.0227 221.97 49.0682C221.624 49.108 221.342 49.142 221.126 49.1705C220.604 49.2386 220.115 49.3494 219.661 49.5028C219.212 49.6506 218.848 49.875 218.57 50.1761C218.297 50.4716 218.161 50.875 218.161 51.3864C218.161 52.0852 218.419 52.6136 218.936 52.9716C219.459 53.3239 220.121 53.5 220.922 53.5ZM235.229 55.2727C234.138 55.2727 233.175 54.9972 232.34 54.446C231.505 53.8892 230.852 53.1051 230.38 52.0938C229.908 51.0767 229.673 49.875 229.673 48.4886C229.673 47.1136 229.908 45.9205 230.38 44.9091C230.852 43.8977 231.508 43.1165 232.349 42.5653C233.19 42.0142 234.161 41.7386 235.263 41.7386C236.116 41.7386 236.789 41.8807 237.283 42.1648C237.783 42.4432 238.164 42.7614 238.425 43.1193C238.692 43.4716 238.9 43.7614 239.048 43.9886H239.218V37.5455H241.229V55H239.286V52.9886H239.048C238.9 53.2273 238.69 53.5284 238.417 53.892C238.144 54.25 237.755 54.571 237.249 54.8551C236.744 55.1335 236.07 55.2727 235.229 55.2727ZM235.502 53.4659C236.309 53.4659 236.991 53.2557 237.548 52.8352C238.104 52.4091 238.528 51.821 238.817 51.071C239.107 50.3153 239.252 49.4432 239.252 48.4545C239.252 47.4773 239.11 46.6222 238.826 45.8892C238.542 45.1506 238.121 44.5767 237.565 44.1676C237.008 43.7528 236.32 43.5455 235.502 43.5455C234.65 43.5455 233.94 43.7642 233.371 44.2017C232.809 44.6335 232.386 45.2216 232.102 45.9659C231.823 46.7045 231.684 47.5341 231.684 48.4545C231.684 49.3864 231.826 50.233 232.11 50.9943C232.4 51.75 232.826 52.3523 233.388 52.8011C233.957 53.2443 234.661 53.4659 235.502 53.4659ZM250.136 55.2727C249.045 55.2727 248.082 54.9972 247.246 54.446C246.411 53.8892 245.758 53.1051 245.286 52.0938C244.815 51.0767 244.579 49.875 244.579 48.4886C244.579 47.1136 244.815 45.9205 245.286 44.9091C245.758 43.8977 246.414 43.1165 247.255 42.5653C248.096 42.0142 249.067 41.7386 250.17 41.7386C251.022 41.7386 251.695 41.8807 252.19 42.1648C252.69 42.4432 253.07 42.7614 253.332 43.1193C253.599 43.4716 253.806 43.7614 253.954 43.9886H254.124V37.5455H256.136V55H254.192V52.9886H253.954C253.806 53.2273 253.596 53.5284 253.323 53.892C253.05 54.25 252.661 54.571 252.156 54.8551C251.65 55.1335 250.977 55.2727 250.136 55.2727ZM250.408 53.4659C251.215 53.4659 251.897 53.2557 252.454 52.8352C253.011 52.4091 253.434 51.821 253.724 51.071C254.013 50.3153 254.158 49.4432 254.158 48.4545C254.158 47.4773 254.016 46.6222 253.732 45.8892C253.448 45.1506 253.028 44.5767 252.471 44.1676C251.914 43.7528 251.227 43.5455 250.408 43.5455C249.556 43.5455 248.846 43.7642 248.278 44.2017C247.715 44.6335 247.292 45.2216 247.008 45.9659C246.729 46.7045 246.59 47.5341 246.59 48.4545C246.59 49.3864 246.732 50.233 247.016 50.9943C247.306 51.75 247.732 52.3523 248.295 52.8011C248.863 53.2443 249.567 53.4659 250.408 53.4659ZM265.587 55.2727C264.326 55.2727 263.238 54.9943 262.323 54.4375C261.414 53.875 260.712 53.0909 260.218 52.0852C259.729 51.0739 259.485 49.8977 259.485 48.5568C259.485 47.2159 259.729 46.0341 260.218 45.0114C260.712 43.983 261.4 43.1818 262.281 42.608C263.167 42.0284 264.201 41.7386 265.383 41.7386C266.065 41.7386 266.738 41.8523 267.403 42.0795C268.067 42.3068 268.673 42.6761 269.218 43.1875C269.763 43.6932 270.198 44.3636 270.522 45.1989C270.846 46.0341 271.008 47.0625 271.008 48.2841V49.1364H260.917V47.3977H268.962C268.962 46.6591 268.815 46 268.519 45.4205C268.229 44.8409 267.815 44.3835 267.275 44.0483C266.741 43.7131 266.11 43.5455 265.383 43.5455C264.582 43.5455 263.888 43.7443 263.303 44.142C262.724 44.5341 262.278 45.0455 261.965 45.6761C261.653 46.3068 261.496 46.983 261.496 47.7045V48.8636C261.496 49.8523 261.667 50.6903 262.008 51.3778C262.354 52.0597 262.835 52.5795 263.448 52.9375C264.062 53.2898 264.775 53.4659 265.587 53.4659C266.116 53.4659 266.593 53.392 267.019 53.2443C267.451 53.0909 267.823 52.8636 268.136 52.5625C268.448 52.2557 268.69 51.875 268.86 51.4205L270.803 51.9659C270.599 52.625 270.255 53.2045 269.772 53.7045C269.289 54.1989 268.692 54.5852 267.982 54.8636C267.272 55.1364 266.474 55.2727 265.587 55.2727ZM279.011 55.2727C277.92 55.2727 276.957 54.9972 276.121 54.446C275.286 53.8892 274.633 53.1051 274.161 52.0938C273.69 51.0767 273.454 49.875 273.454 48.4886C273.454 47.1136 273.69 45.9205 274.161 44.9091C274.633 43.8977 275.289 43.1165 276.13 42.5653C276.971 42.0142 277.942 41.7386 279.045 41.7386C279.897 41.7386 280.57 41.8807 281.065 42.1648C281.565 42.4432 281.945 42.7614 282.207 43.1193C282.474 43.4716 282.681 43.7614 282.829 43.9886H282.999V37.5455H285.011V55H283.067V52.9886H282.829C282.681 53.2273 282.471 53.5284 282.198 53.892C281.925 54.25 281.536 54.571 281.031 54.8551C280.525 55.1335 279.852 55.2727 279.011 55.2727ZM279.283 53.4659C280.09 53.4659 280.772 53.2557 281.329 52.8352C281.886 52.4091 282.309 51.821 282.599 51.071C282.888 50.3153 283.033 49.4432 283.033 48.4545C283.033 47.4773 282.891 46.6222 282.607 45.8892C282.323 45.1506 281.903 44.5767 281.346 44.1676C280.789 43.7528 280.102 43.5455 279.283 43.5455C278.431 43.5455 277.721 43.7642 277.153 44.2017C276.59 44.6335 276.167 45.2216 275.883 45.9659C275.604 46.7045 275.465 47.5341 275.465 48.4545C275.465 49.3864 275.607 50.233 275.891 50.9943C276.181 51.75 276.607 52.3523 277.17 52.8011C277.738 53.2443 278.442 53.4659 279.283 53.4659ZM301.042 55.2727C299.815 55.2727 298.758 54.983 297.871 54.4034C296.985 53.8239 296.303 53.0256 295.826 52.0085C295.349 50.9915 295.11 49.8295 295.11 48.5227C295.11 47.1932 295.354 46.0199 295.843 45.0028C296.337 43.9801 297.025 43.1818 297.906 42.608C298.792 42.0284 299.826 41.7386 301.008 41.7386C301.928 41.7386 302.758 41.9091 303.496 42.25C304.235 42.5909 304.84 43.0682 305.312 43.6818C305.783 44.2955 306.076 45.0114 306.19 45.8295H304.178C304.025 45.233 303.684 44.7045 303.156 44.2443C302.633 43.7784 301.928 43.5455 301.042 43.5455C300.258 43.5455 299.57 43.75 298.979 44.1591C298.394 44.5625 297.937 45.1335 297.607 45.8722C297.283 46.6051 297.121 47.4659 297.121 48.4545C297.121 49.4659 297.281 50.3466 297.599 51.0966C297.923 51.8466 298.377 52.429 298.962 52.8438C299.553 53.2585 300.246 53.4659 301.042 53.4659C301.565 53.4659 302.039 53.375 302.465 53.1932C302.891 53.0114 303.252 52.75 303.548 52.4091C303.843 52.0682 304.053 51.6591 304.178 51.1818H306.19C306.076 51.9545 305.795 52.6506 305.346 53.2699C304.903 53.8835 304.315 54.3722 303.582 54.7358C302.854 55.0938 302.008 55.2727 301.042 55.2727ZM312.982 55.3068C312.153 55.3068 311.4 55.1506 310.724 54.8381C310.048 54.5199 309.511 54.0625 309.113 53.4659C308.715 52.8636 308.516 52.1364 308.516 51.2841C308.516 50.5341 308.664 49.9261 308.96 49.4602C309.255 48.9886 309.65 48.6193 310.144 48.3523C310.638 48.0852 311.184 47.8864 311.781 47.7557C312.383 47.6193 312.988 47.5114 313.596 47.4318C314.391 47.3295 315.036 47.2528 315.531 47.2017C316.031 47.1449 316.394 47.0511 316.621 46.9205C316.854 46.7898 316.971 46.5625 316.971 46.2386V46.1705C316.971 45.3295 316.741 44.6761 316.281 44.2102C315.826 43.7443 315.136 43.5114 314.21 43.5114C313.249 43.5114 312.496 43.7216 311.951 44.142C311.406 44.5625 311.022 45.0114 310.8 45.4886L308.891 44.8068C309.232 44.0114 309.687 43.392 310.255 42.9489C310.829 42.5 311.454 42.1875 312.13 42.0114C312.812 41.8295 313.482 41.7386 314.141 41.7386C314.562 41.7386 315.045 41.7898 315.59 41.892C316.141 41.9886 316.673 42.1903 317.184 42.4972C317.701 42.804 318.13 43.267 318.471 43.8864C318.812 44.5057 318.982 45.3352 318.982 46.375V55H316.971V53.2273H316.869C316.732 53.5114 316.505 53.8153 316.187 54.1392C315.869 54.4631 315.445 54.7386 314.917 54.9659C314.388 55.1932 313.744 55.3068 312.982 55.3068ZM313.289 53.5C314.085 53.5 314.755 53.3438 315.3 53.0312C315.852 52.7188 316.266 52.3153 316.545 51.821C316.829 51.3267 316.971 50.8068 316.971 50.2614V48.4205C316.886 48.5227 316.698 48.6165 316.408 48.7017C316.124 48.7812 315.795 48.8523 315.42 48.9148C315.05 48.9716 314.69 49.0227 314.337 49.0682C313.991 49.108 313.71 49.142 313.494 49.1705C312.971 49.2386 312.482 49.3494 312.028 49.5028C311.579 49.6506 311.215 49.875 310.937 50.1761C310.664 50.4716 310.528 50.875 310.528 51.3864C310.528 52.0852 310.786 52.6136 311.303 52.9716C311.826 53.3239 312.488 53.5 313.289 53.5ZM322.653 55V41.9091H324.597V43.8864H324.733C324.972 43.2386 325.403 42.7131 326.028 42.3097C326.653 41.9062 327.358 41.7045 328.142 41.7045C328.29 41.7045 328.474 41.7074 328.696 41.7131C328.918 41.7187 329.085 41.7273 329.199 41.7386V43.7841C329.131 43.767 328.974 43.7415 328.73 43.7074C328.491 43.6676 328.239 43.6477 327.972 43.6477C327.335 43.6477 326.767 43.7812 326.267 44.0483C325.773 44.3097 325.381 44.6733 325.091 45.1392C324.807 45.5994 324.665 46.125 324.665 46.7159V55H322.653ZM336.128 55.2727C335.037 55.2727 334.074 54.9972 333.239 54.446C332.403 53.8892 331.75 53.1051 331.278 52.0938C330.807 51.0767 330.571 49.875 330.571 48.4886C330.571 47.1136 330.807 45.9205 331.278 44.9091C331.75 43.8977 332.406 43.1165 333.247 42.5653C334.088 42.0142 335.06 41.7386 336.162 41.7386C337.014 41.7386 337.688 41.8807 338.182 42.1648C338.682 42.4432 339.063 42.7614 339.324 43.1193C339.591 43.4716 339.798 43.7614 339.946 43.9886H340.116V37.5455H342.128V55H340.185V52.9886H339.946C339.798 53.2273 339.588 53.5284 339.315 53.892C339.043 54.25 338.653 54.571 338.148 54.8551C337.642 55.1335 336.969 55.2727 336.128 55.2727ZM336.401 53.4659C337.207 53.4659 337.889 53.2557 338.446 52.8352C339.003 52.4091 339.426 51.821 339.716 51.071C340.006 50.3153 340.151 49.4432 340.151 48.4545C340.151 47.4773 340.009 46.6222 339.724 45.8892C339.44 45.1506 339.02 44.5767 338.463 44.1676C337.906 43.7528 337.219 43.5455 336.401 43.5455C335.548 43.5455 334.838 43.7642 334.27 44.2017C333.707 44.6335 333.284 45.2216 333 45.9659C332.722 46.7045 332.582 47.5341 332.582 48.4545C332.582 49.3864 332.724 50.233 333.009 50.9943C333.298 51.75 333.724 52.3523 334.287 52.8011C334.855 53.2443 335.56 53.4659 336.401 53.4659ZM355.364 44.8409L353.557 45.3523C353.443 45.0511 353.276 44.7585 353.054 44.4744C352.838 44.1847 352.543 43.946 352.168 43.7585C351.793 43.571 351.312 43.4773 350.727 43.4773C349.926 43.4773 349.259 43.6619 348.724 44.0312C348.196 44.3949 347.932 44.858 347.932 45.4205C347.932 45.9205 348.114 46.3153 348.477 46.6051C348.841 46.8949 349.409 47.1364 350.182 47.3295L352.125 47.8068C353.295 48.0909 354.168 48.5256 354.741 49.1108C355.315 49.6903 355.602 50.4375 355.602 51.3523C355.602 52.1023 355.386 52.7727 354.955 53.3636C354.528 53.9545 353.932 54.4205 353.165 54.7614C352.398 55.1023 351.506 55.2727 350.489 55.2727C349.153 55.2727 348.048 54.983 347.173 54.4034C346.298 53.8239 345.744 52.9773 345.511 51.8636L347.42 51.3864C347.602 52.0909 347.946 52.6193 348.452 52.9716C348.963 53.3239 349.631 53.5 350.455 53.5C351.392 53.5 352.136 53.3011 352.688 52.9034C353.244 52.5 353.523 52.017 353.523 51.4545C353.523 51 353.364 50.6193 353.045 50.3125C352.727 50 352.239 49.767 351.58 49.6136L349.398 49.1023C348.199 48.8182 347.318 48.3778 346.756 47.7812C346.199 47.179 345.92 46.4261 345.92 45.5227C345.92 44.7841 346.128 44.1307 346.543 43.5625C346.963 42.9943 347.534 42.5483 348.256 42.2244C348.983 41.9006 349.807 41.7386 350.727 41.7386C352.023 41.7386 353.04 42.0227 353.778 42.5909C354.523 43.1591 355.051 43.9091 355.364 44.8409Z" fill="white"/>
<defs>
<linearGradient id="paint0_linear_8_165" x1="256" y1="0.29273" x2="256" y2="348.195" gradientUnits="userSpaceOnUse">
<stop stop-color="#297BA4"/>
<stop offset="1" stop-color="#2F5F71"/>
</linearGradient>
</defs>
</svg>
