<svg width="185" height="178" viewBox="0 0 185 178" fill="none" xmlns="http://www.w3.org/2000/svg">
<path d="M93.7373 9.07219L121.006 48.86C123.151 51.9906 126.31 54.2858 129.951 55.3589L176.218 68.9976C177.228 69.2956 177.625 70.5157 176.982 71.3511L147.568 109.58C145.254 112.588 144.047 116.302 144.151 120.095L145.478 168.312C145.507 169.366 144.469 170.12 143.476 169.767L98.0283 153.606C94.4524 152.334 90.5476 152.334 86.9717 153.606L41.5244 169.767C40.5314 170.12 39.4935 169.366 39.5224 168.312L40.8486 120.095C40.9529 116.302 39.7462 112.588 37.4319 109.58L8.0178 71.351C7.37511 70.5158 7.77157 69.2956 8.7825 68.9976L55.0494 55.3589C58.6897 54.2858 61.8488 51.9906 63.9943 48.86L91.2627 9.07218C91.8585 8.20283 93.1415 8.20282 93.7373 9.07219Z" stroke="#27b881" stroke-width="15"/>
</svg>
