<svg width="272" height="393" viewBox="0 0 272 393" fill="none" xmlns="http://www.w3.org/2000/svg">
<mask id="path-1-inside-1_3_147" fill="white">
<path d="M15 36H16V268H15V36Z"/>
</mask>
<path d="M15 36V35H14V36H15ZM16 36H17V35H16V36ZM16 268V269H17V268H16ZM15 268H14V269H15V268ZM15 37H16V35H15V37ZM15 36V268H17V36H15ZM16 267H15V269H16V267ZM16 268V36H14V268H16Z" fill="#33D599" mask="url(#path-1-inside-1_3_147)"/>
<mask id="path-3-inside-2_3_147" fill="white">
<path d="M35 18H236V0H35V18Z"/>
</mask>
<path d="M35 17H236V19H35V17Z" fill="#33D599" mask="url(#path-3-inside-2_3_147)"/>
<mask id="path-5-inside-3_3_147" fill="white">
<path d="M34 362H239V393H34V362Z"/>
</mask>
<path d="M34 363H239V361H34V363Z" fill="#33D599" mask="url(#path-5-inside-3_3_147)"/>
<mask id="path-7-outside-4_3_147" maskUnits="userSpaceOnUse" x="31" y="278" width="210" height="4" fill="black">
<rect fill="white" x="31" y="278" width="210" height="4"/>
<path d="M31 279H241V282H31V279Z"/>
</mask>
<path d="M241 278.75H236.5V279.25H241V278.75ZM231.5 278.75H222.5V279.25H231.5V278.75ZM217.5 278.75H208.5V279.25H217.5V278.75ZM203.5 278.75H194.5V279.25H203.5V278.75ZM189.5 278.75H180.5V279.25H189.5V278.75ZM175.5 278.75H166.5V279.25H175.5V278.75ZM161.5 278.75H152.5V279.25H161.5V278.75ZM147.5 278.75H138.5V279.25H147.5V278.75ZM133.5 278.75H124.5V279.25H133.5V278.75ZM119.5 278.75H110.5V279.25H119.5V278.75ZM105.5 278.75H96.5V279.25H105.5V278.75ZM91.5 278.75H82.5V279.25H91.5V278.75ZM77.5 278.75H68.5V279.25H77.5V278.75ZM63.5 278.75H54.5V279.25H63.5V278.75ZM49.5 278.75H40.5V279.25H49.5V278.75ZM35.5 278.75H31V279.25H35.5V278.75ZM241 278.5H236.5V279.5H241V278.5ZM231.5 278.5H222.5V279.5H231.5V278.5ZM217.5 278.5H208.5V279.5H217.5V278.5ZM203.5 278.5H194.5V279.5H203.5V278.5ZM189.5 278.5H180.5V279.5H189.5V278.5ZM175.5 278.5H166.5V279.5H175.5V278.5ZM161.5 278.5H152.5V279.5H161.5V278.5ZM147.5 278.5H138.5V279.5H147.5V278.5ZM133.5 278.5H124.5V279.5H133.5V278.5ZM119.5 278.5H110.5V279.5H119.5V278.5ZM105.5 278.5H96.5V279.5H105.5V278.5ZM91.5 278.5H82.5V279.5H91.5V278.5ZM77.5 278.5H68.5V279.5H77.5V278.5ZM63.5 278.5H54.5V279.5H63.5V278.5ZM49.5 278.5H40.5V279.5H49.5V278.5ZM35.5 278.5H31V279.5H35.5V278.5Z" fill="#767676" mask="url(#path-7-outside-4_3_147)"/>
<mask id="path-9-inside-5_3_147" fill="white">
<path d="M256 33H257V268H256V33Z"/>
</mask>
<path d="M256 33V268H258V33H256Z" fill="#33D599" mask="url(#path-9-inside-5_3_147)"/>
<path d="M256.5 298.5C252.527 298.5 248.713 296.871 245.899 293.966C243.084 291.06 241.5 287.116 241.5 283C241.5 278.884 243.084 274.94 245.899 272.034C248.713 269.129 252.527 267.5 256.5 267.5" stroke="#33D599"/>
<path d="M15.5 267.5C17.4676 267.5 19.4163 267.9 21.235 268.678C23.0538 269.455 24.7074 270.596 26.101 272.034C27.4947 273.473 28.601 275.182 29.3561 277.063C30.1112 278.945 30.5 280.962 30.5 283C30.5 285.038 30.1112 287.055 29.3561 288.937C28.601 290.818 27.4947 292.527 26.101 293.966C24.7074 295.404 23.0538 296.545 21.235 297.322C19.4163 298.1 17.4676 298.5 15.5 298.5" stroke="#33D599"/>
<path d="M15.5 36C15.5 33.5761 16.0151 31.1748 17.017 28.933C18.0189 26.6911 19.4886 24.6515 21.3442 22.9317C23.1998 21.2118 25.4049 19.8457 27.8342 18.9131C30.2636 17.9804 32.8685 17.5 35.5 17.5" stroke="#33D599"/>
<path d="M256.472 347.717C256.608 349.599 256.253 351.486 255.423 353.265C254.594 355.045 253.304 356.683 251.627 358.074C249.949 359.466 247.919 360.58 245.66 361.343C243.402 362.106 240.965 362.5 238.5 362.5" stroke="#33D599"/>
<path d="M235.069 17.5035C237.841 17.4588 240.595 17.8462 243.173 18.6423C245.752 19.4385 248.1 20.6266 250.087 22.1347C252.074 23.6427 253.657 25.4393 254.754 27.4177C255.85 29.3955 256.44 31.5183 256.496 33.6661" stroke="#33D599"/>
<path d="M34.5 362.5C31.9891 362.5 29.5047 362.119 27.1895 361.382C24.8741 360.644 22.7772 359.565 21.0163 358.21C19.2555 356.856 17.8678 355.255 16.9246 353.503C15.9818 351.752 15.5 349.883 15.5 348" stroke="#33D599"/>
<rect x="31" y="283" width="211" height="79" fill="#33D599"/>
<rect x="15" y="298" width="242" height="50" fill="#33D599"/>
<path d="M18 352.347C18.0224 352.35 18.0752 352.423 18.0922 352.44C18.166 352.512 18.2456 352.658 18.2609 352.756C18.2894 352.939 18.5395 353.053 18.668 353.185C18.7999 353.319 18.9591 353.4 19.1414 353.467C19.2104 353.493 19.2966 353.576 19.3539 353.621C19.4467 353.695 19.5164 353.785 19.6013 353.865C19.7511 354.007 19.9065 354.155 20.0466 354.305C20.1305 354.395 20.1375 354.532 20.1658 354.643C20.2004 354.778 20.2689 354.901 20.3063 355.033C20.3244 355.096 20.3573 355.151 20.3884 355.209C20.4134 355.257 20.436 355.28 20.3862 355.224C20.2395 355.059 20.0863 354.923 19.9116 354.782C19.8327 354.718 19.6598 354.605 19.6598 354.495C19.6598 354.463 19.7102 354.375 19.7407 354.359C19.7629 354.347 19.7885 354.325 19.8127 354.318C19.8137 354.318 20.0099 354.552 20.0353 354.578C20.2016 354.746 20.3908 354.913 20.5897 355.05C20.6635 355.101 20.6872 355.188 20.7573 355.247C20.8319 355.309 20.8843 355.404 20.9529 355.475C21.1173 355.644 21.3203 355.776 21.4814 355.949C21.602 356.078 21.7146 356.198 21.8559 356.307C21.9176 356.355 22.0536 356.438 22.0673 356.52C22.0846 356.623 22.0684 356.74 22.0684 356.844C22.0684 356.879 22.0712 356.9 22.0291 356.875C21.9249 356.813 21.8304 356.739 21.7176 356.69C21.6256 356.65 21.5011 356.643 21.4421 356.557C21.4 356.496 21.3023 356.355 21.4522 356.465C21.6458 356.608 21.8367 356.754 22.0448 356.879C22.1199 356.924 22.1919 356.958 22.2551 357.017C22.3245 357.08 22.3873 357.138 22.4339 357.218C22.4973 357.327 22.5838 357.395 22.6712 357.485C22.7785 357.597 22.9357 357.76 22.9838 357.905C23.0211 358.017 23.1348 358.122 23.2233 358.203C23.3042 358.277 23.3849 358.35 23.4651 358.425C23.5555 358.51 23.6707 358.549 23.7653 358.627C23.8621 358.707 23.9868 358.794 24.0622 358.89C24.1975 359.062 24.4414 359.183 24.6267 359.3C25.0993 359.597 25.6465 359.703 26.1931 359.838C26.3158 359.868 26.4174 359.925 26.5361 359.959C26.6698 359.998 26.8203 360.027 26.9465 360.083C27.1019 360.153 27.2293 360.256 27.3828 360.325C27.4674 360.363 27.5573 360.383 27.6459 360.414C27.9392 360.516 28.2357 360.606 28.5275 360.711C29.0126 360.886 29.553 360.953 30.0715 360.969C30.3768 360.979 30.6826 360.964 30.9879 360.976C31.2172 360.984 31.5614 361.042 31.7773 360.942C31.8435 360.912 31.8055 360.667 31.7953 360.612C31.7558 360.398 31.7043 360.213 31.5985 360.018C31.4571 359.759 31.3036 359.537 31.0307 359.378C30.6951 359.183 30.2971 359.113 29.9354 358.972C29.7346 358.894 29.5571 358.745 29.3698 358.641C29.1873 358.539 29.0003 358.44 28.8401 358.309C28.6232 358.133 28.4184 357.941 28.1947 357.772C28.0674 357.676 27.9326 357.594 27.8067 357.496C27.5506 357.296 27.3082 357.086 27.0061 356.947C26.9409 356.917 26.871 356.905 26.8048 356.878C26.7153 356.842 26.637 356.784 26.5495 356.743C26.2462 356.602 25.9606 356.43 25.6556 356.292C25.3241 356.141 25.0105 355.959 24.6806 355.805C24.371 355.661 24.0618 355.515 23.7642 355.35C23.3459 355.118 22.989 354.791 22.579 354.544C22.1329 354.277 21.7397 353.922 21.3645 353.578C21.2439 353.467 21.1488 353.367 21.0676 353.229C21.0502 353.199 20.9711 353.078 20.9799 353.122C21.0259 353.349 21.1277 353.558 21.2374 353.765C21.4799 354.222 21.7537 354.663 22.0752 355.077C22.5176 355.647 23.0365 356.159 23.4797 356.728C23.7529 357.08 23.9851 357.462 24.2702 357.805C24.5161 358.101 24.8179 358.355 25.0978 358.622C25.3952 358.906 25.7253 359.149 26.0806 359.369C26.2619 359.481 26.4775 359.601 26.7025 359.614C27.4324 359.653 28.1627 359.583 28.8919 359.652C29.5342 359.712 30.1806 359.772 30.8136 359.622C31.0983 359.554 31.3181 359.407 31.5322 359.228C31.8949 358.926 32.1089 358.475 31.7503 358.095C31.548 357.88 31.3152 357.691 31.1004 357.487C30.8564 357.256 30.6235 357.015 30.3728 356.789C29.9366 356.397 29.401 356.123 28.8581 355.872C28.4684 355.692 28.0625 355.537 27.6572 355.389C27.2677 355.247 26.9266 355.039 26.5237 354.927C26.0372 354.791 25.5444 354.619 25.1001 354.392C24.6918 354.183 24.3084 353.939 23.9182 353.704C23.3787 353.378 22.8161 353.084 22.2528 352.795C21.9904 352.66 21.7302 352.526 21.45 352.424C21.292 352.366 21.095 352.283 20.9203 352.274C20.6688 352.261 20.3457 352.241 20.1107 352.338C20.0257 352.373 20.2153 352.511 20.2366 352.531C20.422 352.704 20.6409 352.837 20.8663 352.963C21.5989 353.369 22.3829 353.705 23.1727 354.005C23.9277 354.292 24.6994 354.55 25.4802 354.772C25.908 354.893 26.3273 354.979 26.7756 354.985C27.2646 354.992 27.7551 354.991 28.2442 354.986C28.4364 354.985 28.6228 354.972 28.8109 354.935C28.908 354.915 29.0056 354.871 29.1033 354.858C29.5056 354.807 29.9446 354.89 30.347 354.904C30.961 354.926 31.5584 354.885 32.1394 355.105C32.355 355.187 32.5507 355.299 32.7399 355.423C32.7984 355.462 32.8825 355.504 32.9221 355.563C32.9563 355.613 32.9648 355.613 32.9783 355.546C33.0089 355.395 32.998 355.234 32.9985 355.081C32.9995 354.798 32.9966 354.522 32.9479 354.241C32.9147 354.049 32.8978 353.847 32.8344 353.661C32.718 353.32 32.4603 353.013 32.1799 352.77C31.606 352.275 30.8499 352.069 30.0816 352.017C29.725 351.993 29.3652 351.988 29.0122 352.048C28.6905 352.102 28.3897 352.218 28.0912 352.337C27.897 352.414 27.7064 352.499 27.502 352.552C27.2754 352.61 27.0415 352.64 26.8127 352.69C26.5365 352.75 26.3244 352.712 26.0447 352.667C25.4774 352.577 24.9124 352.415 24.3602 352.266C24.3327 352.258 23.8983 352.162 24.0352 352.052C24.0743 352.02 24.155 352.024 24.2005 352.024C24.6175 352.02 25.0355 352.087 25.4487 352.13C25.7232 352.159 26.0174 352.161 26.2853 352.229C26.5276 352.291 26.7052 352.445 26.8925 352.59C27.4446 353.016 28.0723 353.289 28.7479 353.51C28.9639 353.58 29.1856 353.652 29.4114 353.692C29.7613 353.752 30.1251 353.756 30.4797 353.777C30.6615 353.788 30.8498 353.807 31.0318 353.787C31.1032 353.778 31.1201 353.746 31.1791 353.723C31.3197 353.666 31.5076 353.684 31.6559 353.669C31.9369 353.64 32.2168 353.592 32.4936 353.54C32.605 353.519 32.5875 353.509 32.6342 353.574" stroke="#33D599" stroke-width="3" stroke-linecap="round"/>
<path d="M31.5717 285.078C31.5717 285.132 31.5615 285.141 31.5255 285.177C31.4646 285.238 31.4886 285.346 31.4886 285.425C31.4886 285.618 31.504 285.844 31.5428 286.034C31.5837 286.234 31.572 286.419 31.597 286.62C31.6438 286.994 31.4843 287.329 31.4286 287.692C31.4008 287.872 31.3384 288.069 31.2601 288.235C31.2265 288.306 31.2112 288.372 31.1932 288.447C31.1757 288.521 31.1101 288.565 31.0847 288.634C30.9566 288.984 30.8415 289.343 30.7408 289.701C30.72 289.775 30.6775 289.842 30.6624 289.918C30.6415 290.022 30.5837 290.09 30.547 290.188C30.4779 290.372 30.4531 290.57 30.3624 290.748C30.2608 290.948 30.152 291.137 30.0716 291.348C30.0101 291.51 29.9762 291.675 29.8985 291.831C29.7779 292.072 29.632 292.304 29.505 292.542C29.4398 292.663 29.3417 292.771 29.2661 292.888C29.1793 293.022 29.0929 293.13 28.995 293.252C28.7798 293.521 28.5335 293.777 28.2899 294.021C27.9706 294.34 27.6526 294.649 27.2826 294.913C27.0344 295.09 26.8175 295.302 26.566 295.475C26.37 295.61 26.1732 295.748 25.9683 295.869C25.8134 295.961 25.673 296.077 25.5171 296.167C25.3768 296.249 25.227 296.314 25.0867 296.398C24.9539 296.477 24.8647 296.602 24.7382 296.689C24.6251 296.766 24.492 296.834 24.3862 296.918C24.2766 297.006 24.1457 297.064 24.032 297.15C23.9168 297.237 23.797 297.303 23.6697 297.373C23.6027 297.41 23.5298 297.434 23.462 297.469C23.384 297.509 23.3337 297.584 23.2554 297.625C22.8835 297.819 22.4952 297.984 22.1211 298.175C22.005 298.234 21.8999 298.312 21.7819 298.367C21.6665 298.42 21.5448 298.453 21.4345 298.518C21.2953 298.6 21.1594 298.734 20.9995 298.766" stroke="#33D599" stroke-width="3" stroke-linecap="round"/>
<path d="M24.0112 298.849C24.3311 298.849 24.6904 298.893 25.0013 298.793C25.1012 298.762 25.1922 298.707 25.2898 298.669C25.5989 298.548 25.9167 298.453 26.229 298.341C26.9759 298.073 27.6948 297.739 28.3776 297.335C28.9097 297.02 29.3446 296.605 29.8269 296.225C30.8809 295.394 31.7198 294.362 32.4625 293.25C32.7397 292.835 33.0859 292.467 33.3175 292.022C33.4103 291.844 33.5331 291.661 33.6072 291.475" stroke="#33D599" stroke-width="3" stroke-linecap="round"/>
<path d="M33.3372 291.787C33.2377 291.969 33.2385 292.118 33.2298 292.327C33.2085 292.843 33.0465 293.34 32.9518 293.846C32.8669 294.298 32.7741 294.751 32.639 295.192C32.4602 295.776 32.2059 296.328 31.9559 296.884C31.7538 297.333 31.515 297.718 31.2163 298.108C30.8991 298.522 30.5663 298.847 30.1454 299.155C29.7539 299.441 29.3987 299.773 28.9915 300.037C28.8962 300.099 28.6551 300.196 28.6015 300.303" stroke="#33D599" stroke-width="3" stroke-linecap="round"/>
<path d="M241.513 288.927C241.513 288.965 241.511 288.985 241.478 289.01C241.399 289.069 241.413 289.134 241.413 289.23C241.413 289.412 241.453 289.557 241.478 289.73C241.514 289.982 241.681 290.24 241.681 290.5C241.681 291.045 241.915 291.596 241.915 292.139C241.915 292.388 241.99 292.602 242.016 292.846C242.057 293.243 242.116 293.607 242.116 294.01C242.116 294.571 242.116 295.132 242.116 295.693C242.116 296.025 242.104 296.343 242.176 296.668C242.228 296.907 242.284 297.236 242.451 297.43C243.08 298.164 244.172 298.371 245.01 298.77C245.194 298.857 245.381 298.941 245.576 299.002C245.685 299.037 245.772 299.116 245.882 299.151C246.04 299.201 246.205 299.22 246.362 299.27C247.211 299.538 248.061 299.607 248.946 299.607C249.828 299.607 250.712 299.64 251.596 299.64C252.001 299.64 252.368 299.608 252.742 299.774C253.014 299.895 253.265 300.008 253.583 300.008C253.87 300.008 254.183 300.015 254.472 300.044C254.58 300.055 254.676 300.109 254.784 300.109C254.819 300.109 254.788 300.033 254.812 300.008C254.879 299.942 254.992 299.891 255.086 299.876C255.162 299.865 255.448 299.77 255.393 299.826C255.319 299.9 255.25 299.876 255.155 299.841C255.079 299.813 254.984 299.783 255.073 299.689C255.119 299.639 255.246 299.609 255.102 299.655C255.031 299.678 254.948 299.743 254.872 299.741C254.78 299.738 254.702 299.68 254.611 299.674C254.484 299.665 254.356 299.678 254.228 299.674C253.938 299.664 253.652 299.546 253.358 299.54C253.158 299.536 252.965 299.51 252.77 299.465C252.457 299.394 252.119 299.242 251.851 299.056C251.667 298.928 251.513 298.75 251.306 298.653C251.096 298.553 250.918 298.543 250.683 298.515C250.327 298.473 249.974 298.402 249.617 298.366C249.167 298.321 248.784 298.049 248.449 297.771C248.263 297.616 248.007 297.549 247.809 297.401C247.646 297.278 247.501 297.131 247.335 297.012C247.121 296.858 246.905 296.744 246.703 296.567C246.583 296.463 246.505 296.324 246.387 296.218C246.268 296.111 246.148 296.025 246.041 295.905C245.68 295.504 245.319 295.044 244.895 294.711C244.533 294.427 244.281 294.024 244.024 293.647C243.786 293.296 243.523 292.955 243.28 292.609C242.918 292.094 242.245 291.893 241.629 292.022C241.37 292.076 241.108 292.353 241.086 292.617C241.066 292.851 241.173 293.053 241.264 293.26C241.471 293.734 241.831 294.072 242.205 294.425C242.804 294.989 243.429 295.526 244.024 296.091C244.238 296.294 244.561 296.428 244.66 296.727" stroke="#33D599" stroke-width="3" stroke-linecap="round"/>
<path d="M254.957 351.469C254.739 351.469 254.49 351.788 254.38 351.961C254.306 352.077 254.237 352.071 254.149 352.15C254.033 352.253 253.965 352.388 253.849 352.49C253.642 352.67 253.481 352.984 253.322 353.212C253.068 353.579 252.766 353.903 252.496 354.261C252.226 354.619 251.914 354.937 251.599 355.253C251.282 355.569 251.035 355.946 250.706 356.251C250.452 356.487 250.175 356.788 249.964 357.059C249.856 357.198 249.623 357.328 249.471 357.423C249.234 357.571 249.021 357.757 248.803 357.93C248.542 358.138 248.285 358.34 248.007 358.526C247.824 358.647 247.567 358.791 247.433 358.96C247.295 359.134 246.855 359.326 246.642 359.373C246.232 359.464 245.829 359.632 245.414 359.694C245.01 359.756 244.602 359.859 244.202 359.961C244.049 360.001 243.914 360.089 243.766 360.12C243.386 360.199 243.019 360.257 242.639 360.353C242.109 360.488 241.571 360.572 241.038 360.693C240.915 360.721 240.74 360.809 240.608 360.802C240.554 360.799 240.819 360.453 240.847 360.412C241.262 359.815 241.561 359.036 242.146 358.585C242.33 358.442 242.512 358.303 242.677 358.138C243.109 357.706 243.683 357.472 244.151 357.085C244.463 356.827 244.737 356.527 245.062 356.282C245.379 356.043 245.763 355.859 246.122 355.696C246.682 355.444 247.225 355.105 247.74 354.766C248.042 354.567 248.409 354.408 248.689 354.188C248.887 354.032 249.122 353.944 249.343 353.829C249.581 353.705 249.801 353.552 250.04 353.429C250.475 353.207 250.834 352.891 251.24 352.627C251.376 352.537 251.727 352.254 251.334 352.487C250.826 352.788 250.289 353.058 249.809 353.401C249.339 353.737 248.881 354.105 248.42 354.454C247.896 354.852 247.467 355.353 246.975 355.786C246.628 356.092 246.283 356.386 245.955 356.712C245.659 357.006 245.318 357.275 245.072 357.614C244.85 357.919 245.541 357.68 245.643 357.649C246.284 357.457 246.837 357.152 247.367 356.764C247.96 356.329 248.7 355.95 249.372 355.656C249.707 355.51 250.077 355.263 250.434 355.208C250.645 355.175 250.856 355.102 251.055 355.031C251.261 354.957 251.468 354.864 251.662 354.764C251.922 354.63 252.19 354.607 252.458 354.52C252.624 354.467 252.781 354.378 252.959 354.36C253.187 354.337 252.838 354.689 252.744 354.783C252.51 355.017 252.252 355.044 252.106 355.359C251.996 355.598 251.692 355.862 251.514 356.06C251.431 356.152 251.19 356.524 251.299 356.242C251.559 355.57 251.387 354.756 251.599 354.062C251.744 353.587 251.866 353.123 251.906 352.627C251.925 352.39 252.085 351.554 251.802 351.413C251.651 351.337 251.378 351.383 251.223 351.415C250.6 351.544 250.004 351.855 249.426 352.107C248.627 352.456 247.787 352.706 246.994 353.066C246.66 353.217 246.296 353.377 246.007 353.604C245.651 353.883 245.351 354.241 245.05 354.575C244.46 355.23 243.8 355.746 243.041 356.197C242.399 356.578 241.771 356.963 241.168 357.404C241.135 357.428 241.04 357.509 241.071 357.482C241.299 357.281 241.506 357.06 241.737 356.863C242.504 356.209 243.296 355.592 244.037 354.908C244.481 354.498 244.892 354.039 245.364 353.663C245.58 353.492 245.81 353.232 245.487 353.023C244.498 352.385 242.935 352.339 241.997 353.089C241.857 353.201 241.727 353.327 241.591 353.444C241.531 353.494 241.427 353.555 241.574 353.515C242.539 353.247 243.506 352.934 244.42 352.523C244.926 352.295 245.425 352.041 245.893 351.743C246.124 351.597 245.407 351.994 245.182 352.15C244.526 352.603 243.955 353.115 243.426 353.711C243.162 354.007 242.891 354.277 242.587 354.53" stroke="#33D599" stroke-width="3" stroke-linecap="round"/>
<path d="M245.418 350.104C245.294 350.234 244.74 350.793 244.974 351.003C245.081 351.099 245.353 350.894 245.418 350.832C245.728 350.534 245.438 349.882 245.123 349.692C244.038 349.037 242.706 348.934 241.474 348.856C241.338 348.847 240.61 348.717 240.48 348.894C240.353 349.066 240.555 349.511 240.635 349.654C241.145 350.57 242.321 351.368 243.295 351.668C243.6 351.762 244.055 351.88 244.379 351.776C244.837 351.629 245.075 350.956 245.247 350.569C245.482 350.037 245.707 349.494 245.908 348.948C245.959 348.812 246.116 348.49 245.975 348.349C245.642 348.016 244.935 348.867 244.822 349.087C244.421 349.87 244.79 350.859 245.481 351.317C246.32 351.873 247.145 352.135 248.116 351.763C249.598 351.196 250.102 349.686 250.251 348.216C250.276 347.966 250.598 346.298 249.874 346.711C249.482 346.935 249.169 347.339 248.886 347.677C248.406 348.251 247.99 348.862 247.632 349.518C247.385 349.969 247.174 350.437 246.89 350.867C246.832 350.955 246.686 351.222 246.697 351.117C246.721 350.903 247.114 350.659 247.255 350.534C247.358 350.443 247.801 349.895 247.939 349.901C248.413 349.92 248.926 350.112 249.396 350.18C250.127 350.286 250.867 350.337 251.607 350.332C251.842 350.33 252.351 350.382 252.519 350.142C252.58 350.054 252.536 349.888 252.55 349.79C252.58 349.587 252.752 349.427 252.829 349.239C252.92 349.019 252.96 348.746 253.102 348.552C253.232 348.372 253.156 348.046 253.425 347.997C253.562 347.972 253.508 348.164 253.516 348.248C253.529 348.376 253.643 348.428 253.71 348.533C253.804 348.681 253.659 349.07 253.938 349.077C254.125 349.083 254.597 349.183 254.597 348.935C254.597 348.781 254.79 348.507 254.654 348.507" stroke="#33D599" stroke-width="3" stroke-linecap="round"/>
<path d="M255.281 349.648C255.27 349.73 254.934 350 254.882 350.104" stroke="#33D599" stroke-width="3" stroke-linecap="round"/>
<path d="M17.1193 347.678C16.6859 347.973 16.9566 348.351 16.9778 348.775C16.9902 349.023 17.1074 349.211 17.2175 349.431C17.3013 349.599 17.2689 349.801 17.3669 349.97C17.5207 350.235 17.6302 350.516 17.807 350.763C18.0964 351.169 18.838 351.003 19.1904 350.818C19.8536 350.47 20.4633 349.845 20.4362 349.054C20.427 348.788 20.3434 348.254 19.9842 348.244C19.6748 348.236 19.1688 348.565 19.1078 348.908C19.0747 349.095 19.0352 349.507 19.1511 349.667C19.3168 349.896 19.4524 350.059 19.6934 350.217C19.9327 350.374 20.1083 350.475 20.3733 350.571C21.2811 350.898 22.1461 351.219 23.1203 351.325C23.3617 351.352 23.603 351.357 23.8454 351.357C23.8884 351.357 24.0047 351.372 24.0517 351.341C24.1828 351.254 24.312 351.098 24.4211 350.987C24.8458 350.556 25.2082 349.902 25.0696 349.278C24.8919 348.478 24.2015 348.557 23.5565 348.677C23.4114 348.703 23.1586 348.771 23.0771 348.908C22.8504 349.291 25.2439 349.756 25.4508 349.793C26.1286 349.911 26.7526 349.994 27.4393 349.97C28.028 349.949 28.6102 349.863 29.196 349.808C29.5622 349.774 29.959 349.807 30.3161 349.71C30.4847 349.665 30.5557 349.422 30.5597 349.27C30.5721 348.801 30.584 348.381 30.0449 348.197C29.6041 348.047 29.0015 348.125 28.5476 348.154C28.0406 348.186 27.5331 348.293 27.0306 348.366C26.641 348.423 26.2501 348.492 25.8556 348.492C25.3891 348.492 24.9045 348.533 24.4408 348.484C24.2139 348.46 24.1687 348.397 23.981 348.295C23.7577 348.175 23.5044 348.229 23.2736 348.158C23.1146 348.109 22.9823 348.103 22.8138 348.103" stroke="#33D599" stroke-width="3" stroke-linecap="round"/>
</svg>
