<?xml version="1.0" standalone="no"?>
<svg xmlns:xlink="http://www.w3.org/1999/xlink" id="wave" style="transform:rotate(180deg); transition: 0.3s" viewBox="0 0 1440 180" version="1.1" xmlns="http://www.w3.org/2000/svg"><defs><linearGradient id="sw-gradient-0" x1="0" x2="0" y1="1" y2="0"><stop stop-color="rgba(0, 0, 0, 1)" offset="0%"/><stop stop-color="rgba(0, 0, 0, 1)" offset="100%"/></linearGradient></defs><path style="transform:translate(0, 0px); opacity:1" fill="url(#sw-gradient-0)" d="M0,126L80,111C160,96,320,66,480,69C640,72,800,108,960,102C1120,96,1280,48,1440,36C1600,24,1760,48,1920,75C2080,102,2240,132,2400,123C2560,114,2720,66,2880,42C3040,18,3200,18,3360,30C3520,42,3680,66,3840,78C4000,90,4160,90,4320,90C4480,90,4640,90,4800,102C4960,114,5120,138,5280,141C5440,144,5600,126,5760,111C5920,96,6080,84,6240,75C6400,66,6560,60,6720,72C6880,84,7040,114,7200,132C7360,150,7520,156,7680,153C7840,150,8000,138,8160,123C8320,108,8480,90,8640,96C8800,102,8960,132,9120,147C9280,162,9440,162,9600,159C9760,156,9920,150,10080,132C10240,114,10400,84,10560,72C10720,60,10880,66,11040,72C11200,78,11360,84,11440,87L11520,90L11520,180L11440,180C11360,180,11200,180,11040,180C10880,180,10720,180,10560,180C10400,180,10240,180,10080,180C9920,180,9760,180,9600,180C9440,180,9280,180,9120,180C8960,180,8800,180,8640,180C8480,180,8320,180,8160,180C8000,180,7840,180,7680,180C7520,180,7360,180,7200,180C7040,180,6880,180,6720,180C6560,180,6400,180,6240,180C6080,180,5920,180,5760,180C5600,180,5440,180,5280,180C5120,180,4960,180,4800,180C4640,180,4480,180,4320,180C4160,180,4000,180,3840,180C3680,180,3520,180,3360,180C3200,180,3040,180,2880,180C2720,180,2560,180,2400,180C2240,180,2080,180,1920,180C1760,180,1600,180,1440,180C1280,180,1120,180,960,180C800,180,640,180,480,180C320,180,160,180,80,180L0,180Z"/></svg>