<?xml version="1.0" standalone="no"?>
<svg xmlns:xlink="http://www.w3.org/1999/xlink" id="wave" style="transform:rotate(0deg); transition: 0.3s" viewBox="0 0 1440 320" version="1.1" xmlns="http://www.w3.org/2000/svg"><defs><linearGradient id="sw-gradient-0" x1="0" x2="0" y1="1" y2="0"><stop stop-color="rgba(0, 0, 0, 1)" offset="0%"/><stop stop-color="rgba(0, 0, 0, 1)" offset="100%"/></linearGradient></defs><path style="transform:translate(0, 0px); opacity:1" fill="url(#sw-gradient-0)" d="M0,224L80,197.3C160,171,320,117,480,122.7C640,128,800,192,960,181.3C1120,171,1280,85,1440,64C1600,43,1760,85,1920,133.3C2080,181,2240,235,2400,218.7C2560,203,2720,117,2880,74.7C3040,32,3200,32,3360,53.3C3520,75,3680,117,3840,138.7C4000,160,4160,160,4320,160C4480,160,4640,160,4800,181.3C4960,203,5120,245,5280,250.7C5440,256,5600,224,5760,197.3C5920,171,6080,149,6240,133.3C6400,117,6560,107,6720,128C6880,149,7040,203,7200,234.7C7360,267,7520,277,7680,272C7840,267,8000,245,8160,218.7C8320,192,8480,160,8640,170.7C8800,181,8960,235,9120,261.3C9280,288,9440,288,9600,282.7C9760,277,9920,267,10080,234.7C10240,203,10400,149,10560,128C10720,107,10880,117,11040,128C11200,139,11360,149,11440,154.7L11520,160L11520,320L11440,320C11360,320,11200,320,11040,320C10880,320,10720,320,10560,320C10400,320,10240,320,10080,320C9920,320,9760,320,9600,320C9440,320,9280,320,9120,320C8960,320,8800,320,8640,320C8480,320,8320,320,8160,320C8000,320,7840,320,7680,320C7520,320,7360,320,7200,320C7040,320,6880,320,6720,320C6560,320,6400,320,6240,320C6080,320,5920,320,5760,320C5600,320,5440,320,5280,320C5120,320,4960,320,4800,320C4640,320,4480,320,4320,320C4160,320,4000,320,3840,320C3680,320,3520,320,3360,320C3200,320,3040,320,2880,320C2720,320,2560,320,2400,320C2240,320,2080,320,1920,320C1760,320,1600,320,1440,320C1280,320,1120,320,960,320C800,320,640,320,480,320C320,320,160,320,80,320L0,320Z"/></svg>